<svg width="295" height="83" viewBox="0 0 295 83" fill="none" xmlns="http://www.w3.org/2000/svg">
    <path d="M287.994 15.2639C286.325 18.0588 284.656 20.8536 282.987 23.6485C281.861 25.5506 280.697 27.4138 279.649 29.3159C278.989 30.558 278.601 30.4804 277.941 29.3159C275.534 24.9683 273.05 20.6595 270.604 16.312C270.371 15.9238 270.138 15.5744 269.905 15.1863C269.168 15.5356 269.517 16.1179 269.517 16.5837C269.517 22.1346 269.44 27.7244 269.517 33.2753C269.517 34.6727 269.09 34.9833 267.77 34.9833C263.695 34.9833 263.695 34.9832 263.695 30.985C263.695 22.7557 263.695 14.5652 263.695 6.33583C263.695 4.78313 264.122 4.39495 265.713 4.20086C269.207 3.77387 271.264 4.93841 272.739 8.2379C274.447 12.042 276.776 15.5744 278.989 19.4562C281.745 14.7981 284.384 10.4505 286.869 6.02529C287.606 4.7055 288.421 4.23969 289.896 4.23969C294.361 4.31733 294.361 4.23968 294.361 8.66489C294.361 16.8166 294.361 24.9683 294.361 33.12C294.361 34.4786 294.166 35.0221 292.614 35.0221C288.499 34.9444 288.499 35.0221 288.499 30.8298C288.499 26.2881 288.499 21.7853 288.499 17.2436C288.499 16.6225 288.46 16.0402 288.421 15.4192L288.072 15.3027L287.994 15.2639Z" fill="black"/>
    <path d="M31.1784 74.11C27.8013 74.11 24.463 74.0712 21.0858 74.11C19.9989 74.11 19.6108 73.8383 19.6496 72.7126C19.7272 70.1894 19.6496 67.6663 19.6884 65.1431C19.6884 63.8622 19.4555 63.2799 17.9804 63.3187C16.6606 63.3187 16.156 63.7069 16.2336 65.0655C16.3501 67.511 16.2336 69.9954 16.2724 72.4409C16.2724 73.6442 16.0395 74.1489 14.6809 74.11C11.0709 74.0324 7.42203 74.0324 3.81199 74.11C2.56982 74.11 2.2981 73.683 2.2981 72.5573C2.37573 68.2098 2.37573 63.901 2.2981 59.5534C2.2981 58.2336 2.72509 57.9231 3.96726 57.9231C7.46084 57.9231 7.46084 57.8843 7.46084 61.4167C7.46084 63.474 7.5773 65.5701 7.46084 67.6275C7.34439 69.1414 8.19838 69.1414 9.24646 69.1026C10.2169 69.1026 11.1485 69.2966 11.0709 67.6663C10.9156 65.0267 11.0709 62.3483 10.9932 59.7087C10.9544 58.3889 11.265 57.8843 12.7012 57.9231C16.2724 58.0007 19.8049 58.0007 23.3761 57.9231C24.463 57.9231 24.8511 58.2724 24.8123 59.3593C24.7347 62.0766 24.8511 64.7938 24.7735 67.511C24.7347 68.8308 25.2005 69.219 26.4427 69.0637C26.9473 68.9861 27.4907 68.9861 27.9954 69.0637C29.0823 69.1802 29.4704 68.7532 29.4316 67.6275C29.354 64.9102 29.4316 62.193 29.3928 59.4758C29.3928 58.3889 29.5481 57.8454 30.8291 57.8843C34.3226 57.9619 37.8162 57.9619 41.3098 57.8843C42.3967 57.8843 42.7849 58.1948 42.7461 59.3205C42.6296 63.9398 43.3283 62.9306 39.136 63.047C39.0584 63.047 39.0196 63.047 38.9419 63.047C34.2062 63.047 34.245 63.047 34.4003 67.7828C34.4391 68.8308 34.8273 69.1026 35.7589 69.0637C37.5833 69.0249 39.3689 69.1026 41.1934 69.0637C42.3967 68.9861 42.7073 69.4519 42.7073 70.6164C42.7073 74.0712 42.7849 74.0712 39.2525 74.0712C36.5352 74.0712 33.818 74.0712 31.1008 74.0712L31.1784 74.11Z" fill="black"/>
    <path d="M204.538 19.6878C204.538 15.1462 204.616 10.6433 204.538 6.10167C204.538 4.58778 205.004 4.23842 206.44 4.27723C211.991 4.35487 217.542 4.35487 223.132 4.27723C224.491 4.27723 224.918 4.66541 224.879 6.02403C224.762 9.78934 225.189 9.12945 221.851 9.16827C218.552 9.16827 215.252 9.20709 211.953 9.16827C210.788 9.16827 210.322 9.4788 210.361 10.6821C210.439 12.0408 210.439 13.3994 210.361 14.758C210.245 16.0778 210.71 16.5436 212.069 16.5436C215.679 16.466 219.328 16.5436 222.938 16.466C224.335 16.466 224.801 16.9318 224.646 18.2516C224.568 18.7562 224.607 19.2997 224.646 19.8043C224.762 20.9688 224.297 21.357 223.093 21.357C219.483 21.2794 215.834 21.357 212.224 21.3182C210.827 21.3182 210.245 21.6676 210.361 23.1426C210.477 24.8118 210.477 26.5198 210.361 28.1889C210.283 29.4699 210.71 29.8581 211.991 29.8581C215.601 29.7804 219.25 29.8581 222.86 29.8192C224.297 29.8192 224.918 30.091 224.879 31.7213C224.762 34.982 224.879 34.982 221.618 34.982C216.494 34.982 211.409 34.9432 206.285 34.982C204.965 34.982 204.5 34.7103 204.538 33.274C204.616 28.7324 204.538 24.2295 204.538 19.6878Z" fill="black"/>
    <path d="M186.644 22.0956C186.644 18.4856 186.567 14.8367 186.644 11.2267C186.644 9.82925 186.217 9.44107 184.898 9.5187C183.073 9.63515 181.288 9.51872 179.463 9.55753C178.493 9.55753 178.143 9.24698 178.105 8.23772C177.911 4.27833 177.872 4.27832 181.753 4.27832C187.576 4.27832 193.399 4.31714 199.221 4.27832C200.735 4.27832 201.24 4.62768 201.201 6.2192C201.123 9.59634 201.201 9.55752 197.824 9.59634C196.155 9.59634 194.059 8.85881 193.011 9.98452C192.04 10.9938 192.739 13.0899 192.739 14.6814C192.739 20.8146 192.7 26.9866 192.739 33.1198C192.739 34.4396 192.584 35.0607 190.992 35.0219C186.683 34.9443 186.683 35.0219 186.683 30.7131C186.683 27.8795 186.683 25.007 186.683 22.1733L186.644 22.0956Z" fill="black"/>
    <path d="M144.835 69.0247C144.835 72.0524 144.835 75.119 144.835 78.1468C144.835 79.2337 144.68 79.816 143.36 79.7772C138.43 79.6995 133.539 79.7383 128.61 79.7772C127.639 79.7772 127.251 79.5054 127.251 78.4574C127.29 74.1874 127.29 69.9175 127.251 65.6475C127.251 64.5218 127.639 64.2501 128.726 64.2113C132.453 64.1337 132.453 64.0948 132.453 67.7825C132.453 69.801 132.491 71.7807 132.453 73.7993C132.453 74.7309 132.763 75.119 133.695 75.0026C133.772 75.0026 133.811 75.0026 133.889 75.0026C135.674 74.8861 137.965 75.7401 139.129 74.6532C140.216 73.644 139.44 71.3537 139.44 69.6069C139.479 66.2298 139.479 62.8915 139.44 59.5143C139.44 58.3498 139.75 57.9616 140.954 57.9616C144.835 57.9228 144.835 57.8452 144.835 61.6493C144.835 64.0948 144.835 66.5792 144.835 69.0247Z" fill="black"/>
    <path d="M118.13 61.2223C118.13 65.0265 118.091 68.8306 118.13 72.6347C118.13 73.7992 117.859 74.1486 116.616 74.1486C112.773 74.1486 112.773 74.1874 112.773 70.3057C112.773 63.5514 112.773 56.7583 112.773 50.004C112.773 48.6454 113.2 48.2572 114.52 48.2961C118.13 48.3349 118.13 48.296 118.13 51.7508C118.13 54.895 118.13 58.0781 118.13 61.2223Z" fill="black"/>
    <path d="M100.313 52.6824C99.6915 53.7693 98.7599 54.5845 97.7895 55.2832C97.0907 55.7879 96.5473 55.1279 96.1591 54.6621C95.2275 53.4588 94.4123 53.4588 93.4807 54.6621C92.3162 56.176 91.5398 55.0115 90.6858 54.1963C89.8318 53.3812 89.1331 52.6824 90.3753 51.5179C92.3162 49.6547 92.3162 49.4994 94.1018 51.285C95.1499 52.2943 95.4992 51.3627 96.0815 50.8968C96.5861 50.4698 97.0131 49.5382 97.8283 50.0817C98.7987 50.7027 99.5751 51.5567 100.274 52.6824H100.313Z" fill="black"/>
    <path d="M254.418 75.9731C254.806 76.3225 255.272 76.6331 255.621 77.0989C256.359 78.1081 257.057 78.0693 257.717 77.0989C258.921 75.3909 259.813 76.2837 260.9 77.3318C262.104 78.4963 261.91 79.195 260.823 80.2819C259.581 81.5629 258.571 81.9511 257.407 80.3595C256.63 79.2726 256.009 79.8549 255.466 80.5536C254.146 82.3004 253.292 81.1359 252.244 80.1654C251.002 79.0397 251.312 78.2246 252.438 77.3318C253.02 76.866 253.409 76.0896 254.379 75.9731H254.418Z" fill="black"/>
    <path d="M14.0212 78.848C13.4001 79.8573 12.5461 80.6724 11.6145 81.3323C10.8382 81.8758 10.2559 81.1382 9.8289 80.6336C8.97491 79.6243 8.27619 79.4691 7.4222 80.6336C6.18003 82.3416 5.32605 81.0606 4.35561 80.2066C3.15226 79.1585 3.42398 78.421 4.43324 77.3341C5.71422 76.0143 6.68466 75.5485 7.92683 77.2953C8.85845 78.6151 9.4019 77.2953 10.023 76.8683C10.5664 76.4801 10.9546 75.5485 11.7698 76.2472C12.6238 76.9847 13.5554 77.7223 14.0212 78.8868V78.848Z" fill="black"/>
    <path d="M247.742 51.9836C247.043 53.0705 246.228 53.9245 245.258 54.5456C244.404 55.089 243.821 54.2738 243.356 53.6916C242.579 52.7599 241.919 52.7599 241.221 53.6916C239.94 55.4772 239.047 54.2738 237.999 53.3422C236.795 52.2553 237.145 51.5178 238.154 50.5085C239.319 49.344 240.25 48.6065 241.492 50.3532C242.424 51.7119 243.045 50.625 243.744 50.0039C244.248 49.5769 244.675 48.7229 245.491 49.4216C246.345 50.1592 247.237 50.9355 247.781 51.9448L247.742 51.9836Z" fill="black"/>
    <path d="M287.531 52.2558C287.531 52.7993 285.047 55.2059 284.542 55.0119C283.339 54.5072 282.407 53.6144 281.941 52.3723C281.747 51.79 284.076 49.4609 284.736 49.4609C285.241 49.4609 287.492 51.7512 287.492 52.2558H287.531Z" fill="black"/>
    <path d="M134.665 57.9232C134.005 57.9232 131.948 55.9047 131.948 55.206C131.948 54.5849 134.083 52.4111 134.665 52.4111C135.208 52.4111 137.46 54.6238 137.46 55.1672C137.46 55.6718 135.208 57.9232 134.665 57.9232Z" fill="black"/>
    <path d="M216.26 72.4416C216.183 68.8703 216.26 65.3379 216.26 61.7667C216.26 57.8073 216.26 57.8461 212.34 57.9626C211.214 57.9626 210.903 58.3508 210.903 59.4376C210.981 62.0772 210.903 64.7557 210.903 67.3953C210.903 68.4822 210.903 69.1809 209.428 69.1809C207.992 69.1809 207.682 68.5986 207.759 67.3564C207.837 66.1919 207.759 65.0274 207.759 63.8628C207.759 60.0587 207.759 60.0975 203.955 60.1364C202.635 60.1364 202.286 60.641 202.363 61.8443C202.441 63.5911 202.363 65.3379 202.363 67.0847C202.363 68.1716 202.596 69.2197 200.811 69.1809C199.142 69.1809 199.064 68.4045 199.142 67.1623C199.219 65.9978 199.142 64.8333 199.142 63.6688C199.025 59.6317 199.957 60.2528 195.532 60.1364C194.173 60.0975 193.901 60.641 193.94 61.8443C194.018 63.7076 193.824 65.6096 194.018 67.4729C194.212 69.4138 193.008 69.1809 191.844 69.1421C190.679 69.1421 189.437 69.569 189.476 67.4729C189.631 62.3101 189.515 57.1086 189.515 51.9458C189.515 48.2582 189.515 48.297 185.827 48.297C184.585 48.297 184.158 48.6463 184.197 49.9273C184.274 55.4394 184.236 60.9127 184.197 66.4248C184.197 69.4526 184.818 69.1032 181.402 69.2197C180.121 69.2585 179.888 68.7927 179.927 67.667C180.005 65.8037 179.849 63.9017 179.966 62.0384C180.043 60.641 179.539 60.2916 178.219 60.3305C173.638 60.4081 169.019 60.3305 164.439 60.4081C163.041 60.4081 162.692 59.9811 162.731 58.6613C162.847 56.4099 162.731 54.1196 162.731 51.8682C162.731 48.3746 162.731 48.4911 159.276 48.3746C157.684 48.3358 157.374 48.8792 157.374 50.3543C157.451 56.0993 157.335 61.8831 157.451 67.6282C157.49 69.6079 156.326 69.2197 155.2 69.2585C154.113 69.2585 153.104 69.5302 153.143 67.7058C153.298 62.349 153.22 56.9533 153.22 51.5965C153.22 48.2193 153.22 48.297 149.843 48.2193C148.291 48.1805 147.902 48.6851 147.902 50.199C147.98 57.652 147.98 65.0662 147.902 72.5192C147.902 73.9942 148.329 74.3436 149.766 74.3436C160.518 74.266 171.232 74.3436 181.984 74.3436C192.776 74.3436 203.606 74.3436 214.397 74.3436C215.717 74.3436 216.183 74.0331 216.144 72.6356L216.26 72.4416ZM173.716 69.1421C172.125 69.0644 170.494 69.1421 168.903 69.1421C167.35 69.1421 165.797 69.0644 164.283 69.1421C162.925 69.2197 162.808 68.521 162.886 67.5117C162.964 66.6189 162.498 65.4932 164.167 65.532C167.389 65.6096 170.611 65.5708 173.833 65.532C175.54 65.532 174.919 66.7354 175.036 67.5894C175.152 68.521 175.036 69.2197 173.755 69.1421H173.716Z" fill="black"/>
    <path d="M108.892 51.9461C108.892 48.2196 108.892 48.2584 105.088 48.2584C103.768 48.2584 103.457 48.6854 103.496 49.9276C103.535 54.9739 103.496 60.0202 103.496 65.0665C103.496 69.3364 103.496 69.2976 99.1096 69.1423C98.1392 69.1423 97.751 68.8706 97.7898 67.8225C97.8675 65.8816 97.7898 63.9407 97.7898 61.9999C97.7898 58.1569 97.7898 58.1957 93.9857 58.2345C92.7435 58.2345 92.433 58.7392 92.4718 59.8649C92.5495 61.534 92.4718 63.242 92.4718 64.9112C92.4718 69.3364 92.4718 69.2588 88.0078 69.1423C86.8433 69.1423 86.6104 68.6765 86.6104 67.6284C86.688 65.7652 86.5327 63.8631 86.6492 61.9999C86.7656 60.486 86.1834 60.1754 84.7859 60.2143C80.2054 60.2919 75.5862 60.2142 71.0057 60.2919C69.7247 60.2919 69.3365 59.9425 69.3753 58.6615C69.4918 56.3325 69.3753 54.0034 69.3753 51.6744C69.3753 48.2972 69.3753 48.3749 66.037 48.2584C64.4067 48.2196 63.9797 48.7242 64.0185 50.3158C64.1349 55.8667 64.0573 61.4564 64.0573 67.0073C64.0573 68.1331 64.4067 69.2587 62.427 69.2199C60.4085 69.1811 60.8743 67.9778 60.8743 66.9297C60.8743 64.4842 60.7966 61.9999 60.8743 59.5544C60.8743 58.351 60.5249 58.0016 59.3216 58.0016C55.4398 58.0793 51.558 58.0405 47.6763 58.0016C46.7058 58.0016 46.3176 58.2345 46.3176 59.2826C46.3565 63.8243 46.3565 68.3271 46.3176 72.8688C46.3176 73.9169 46.667 74.1886 47.6763 74.1498C49.7336 74.0721 51.8298 74.2274 53.8871 74.111C55.6727 73.9945 55.4398 75.0426 55.5174 76.1683C55.5951 77.4881 55.2457 78.0704 53.8094 77.9539C52.5285 77.8374 51.2087 77.9539 49.9277 77.9539C46.1624 77.9539 46.2012 77.9539 46.3176 81.6804C46.3176 82.6897 46.667 83.0002 47.6763 83.0002C51.6357 82.9614 55.5562 82.9226 59.5156 83.0002C60.719 83.0002 60.9131 82.4956 60.8743 81.4863C60.8354 79.6231 60.9519 77.721 60.8354 75.8578C60.7578 74.4603 61.2624 74.111 62.5822 74.1498C70.0352 74.1886 77.4494 74.1498 84.9024 74.1498C92.2001 74.1498 99.5366 74.0722 106.834 74.1886C108.504 74.1886 108.853 73.684 108.814 72.1313C108.736 65.4158 108.814 58.6615 108.814 51.9461H108.892ZM55.6727 66.2698C55.6727 66.8521 55.6727 67.4343 55.6727 68.0166C55.7115 68.8318 55.3621 69.1035 54.547 69.1423C51.5192 69.3752 51.5192 69.414 51.5192 66.4639C51.5192 66.1922 51.5192 65.9593 51.5192 65.6875C51.5192 64.3677 51.131 63.0868 53.4601 63.1256C55.5174 63.2032 55.8668 63.9796 55.6727 65.6487C55.6727 65.8428 55.6727 66.0369 55.6727 66.231V66.2698ZM80.3607 69.1423C78.8468 69.0259 77.2941 69.1423 75.7414 69.1423C74.344 69.1423 72.9077 69.1035 71.5103 69.1423C70.1905 69.2199 69.4141 69.0647 69.453 67.3567C69.453 65.6875 70.1129 65.4546 71.5103 65.4934C74.4604 65.5711 77.4106 65.5711 80.3995 65.4934C82.0687 65.4546 81.6417 66.5415 81.6805 67.4343C81.6805 68.2883 81.9522 69.2976 80.4384 69.1423H80.3607Z" fill="black"/>
    <path d="M150.969 16.4657C150.969 22.3272 150.891 28.1886 151.007 34.0501C151.046 35.9133 150.619 36.612 148.678 36.3791C147.203 36.2239 145.689 36.2627 144.214 36.3791C143.011 36.4568 142.662 36.0298 142.662 34.8264C142.739 31.0223 142.662 27.2182 142.662 23.3752C142.662 16.6598 142.662 9.94432 142.662 3.19005C142.662 1.55971 143.516 0.744545 145.224 0.744545C146.388 0.744545 147.591 0.899815 148.717 0.744545C151.007 0.395186 152.172 1.44327 153.181 3.34533C156.015 8.70217 159.043 13.9814 161.993 19.2994C162.265 19.7652 162.381 20.3863 163.274 20.6968C163.274 18.6006 163.274 16.5433 163.274 14.5248C163.274 10.449 163.313 6.3731 163.274 2.29725C163.274 0.977451 163.701 0.628087 164.943 0.666905C166.69 0.74454 168.437 0.74454 170.183 0.666905C171.193 0.666905 171.542 1.01626 171.542 2.02552C171.542 13.0109 171.542 23.9963 171.542 34.9817C171.542 36.1462 171.037 36.3791 170.028 36.3403C168.087 36.3015 166.146 36.2627 164.205 36.3403C163.002 36.418 162.381 35.9521 161.799 34.9041C158.538 28.965 155.2 23.0647 151.9 17.1256C151.745 16.8539 151.551 16.5821 151.396 16.3492C151.279 16.3492 151.124 16.388 151.007 16.4269L150.969 16.4657Z" fill="black"/>
    <path d="M18.7571 10.4113C18.0584 10.4113 17.3209 10.4113 16.6222 10.4113C15.6517 10.4113 14.9142 10.4114 14.2155 9.36329C13.2062 7.77176 10.8771 7.84939 9.9067 9.20801C9.01389 10.4502 9.59616 11.9252 11.3818 12.7404C13.7108 13.8273 16.3116 14.2543 18.5242 15.6906C24.0751 19.223 25.7831 26.6759 22.0954 31.761C17.9808 37.3896 9.9067 38.6706 4.78277 34.5948C2.10435 32.4598 0.551644 29.7814 0.0470148 26.443C-0.147073 25.1232 0.241107 24.6963 1.56091 24.8127C2.6478 24.8903 3.77351 24.8127 4.86041 24.8127C6.52956 24.8127 8.1599 24.3857 8.78098 26.9088C9.20798 28.5392 11.0712 29.1215 12.8568 28.6945C14.4095 28.3063 15.5741 27.4911 15.7293 25.7055C15.8846 23.7646 14.6813 22.7554 13.0509 22.1343C11.0712 21.3579 9.01389 20.7757 7.11183 19.8052C2.72544 17.5538 0.396374 12.624 1.59972 7.92703C2.80307 3.07482 7.15064 -0.185869 12.1969 0.00821963C17.4373 0.16349 21.7073 3.65708 22.6777 8.43165C22.9882 9.86791 22.8718 10.6831 21.0862 10.4502C20.3098 10.3337 19.5335 10.4502 18.7571 10.4502V10.4113Z" fill="black"/>
    <path d="M92.7042 22.5997C92.7042 18.5238 92.7042 14.4479 92.7042 10.3721C92.7042 9.24638 92.4325 8.70295 91.1903 8.78058C89.9093 8.85822 88.5895 8.78058 87.3086 8.78058C86.2993 8.8194 85.7559 8.58648 85.7947 7.38313C85.8723 5.51989 85.8335 3.61782 85.7947 1.75457C85.7947 0.861768 86.1052 0.473587 87.0368 0.512405C93.5194 0.512405 99.9631 0.512405 106.446 0.512405C107.338 0.512405 107.727 0.784143 107.727 1.71577C107.727 3.65665 107.727 5.59753 107.727 7.53841C107.727 8.47004 107.338 8.78058 106.446 8.78058C105.165 8.74176 103.845 8.85822 102.564 8.78058C101.128 8.66413 100.856 9.24638 100.856 10.5662C100.895 18.5238 100.856 26.4814 100.934 34.439C100.934 35.9917 100.545 36.4964 98.9927 36.3799C97.44 36.2635 95.8873 36.2635 94.3346 36.3799C92.8983 36.4964 92.6266 35.9141 92.6654 34.6331C92.743 30.6349 92.6654 26.5979 92.6654 22.5997H92.7042Z" fill="black"/>
    <path d="M62.8147 18.4458C62.8147 13.1666 62.8535 7.84864 62.8147 2.56944C62.8147 1.17201 63.0864 0.512098 64.6003 0.667369C66.6965 0.900275 69.4137 -0.225432 70.7335 1.13319C71.9368 2.37535 71.044 5.05375 71.044 7.11109C71.044 13.516 71.1217 19.8821 71.044 26.287C71.044 27.8785 71.5098 28.2279 72.9849 28.1891C76.1291 28.0726 79.3122 28.1891 82.4952 28.1503C83.7762 28.1503 84.1644 28.5384 84.1256 29.7806C84.0479 31.5274 84.0868 33.2742 84.1256 35.021C84.1256 35.9526 83.9703 36.4184 82.8834 36.4184C76.6726 36.3796 70.5006 36.3408 64.2898 36.4184C62.9311 36.4184 62.8923 35.7585 62.8923 34.7493C62.8923 29.3148 62.8923 23.9191 62.8923 18.4847L62.8147 18.4458Z" fill="black"/>
    <path d="M42.5916 0.707173C32.8096 0.745991 24.8519 8.78125 24.8908 18.5245C24.8908 28.2677 32.9648 36.303 42.7081 36.2641C52.5289 36.2641 60.603 28.1124 60.5254 18.3304C60.4477 8.58716 52.3737 0.668356 42.6304 0.707173H42.5916ZM42.7081 28.0736C37.39 28.0736 33.0813 23.8037 33.0813 18.5245C33.0813 13.2065 37.39 8.93652 42.7081 8.93652C47.9484 8.93652 52.1407 13.1677 52.2184 18.408C52.2572 23.7649 48.0649 28.0348 42.7081 28.0736Z" fill="black"/>
    <path d="M139.906 34.9036C136.296 23.9183 132.802 12.9329 129.27 1.90865C128.998 1.01585 128.533 0.666486 127.601 0.666486C125.854 0.705303 124.107 0.744121 122.361 0.666486C121.312 0.627668 120.885 1.05467 120.575 1.98629C116.848 12.9717 113.122 23.9959 109.318 34.9813C108.968 35.9905 109.085 36.4175 110.249 36.3399C111.686 36.2623 113.122 36.1458 114.519 36.3399C116.848 36.6893 118.207 35.9129 118.556 33.545C118.751 32.264 119.488 31.9535 120.73 31.9923C123.37 32.07 126.048 32.07 128.688 31.9923C129.814 31.9923 130.396 32.264 130.784 33.4286C131.754 36.3399 131.832 36.3399 135.015 36.3011C135.287 36.3011 135.52 36.3011 135.791 36.3011C136.762 36.3011 137.732 36.2622 138.703 36.3011C139.867 36.3787 140.333 36.2234 139.867 34.826L139.906 34.9036ZM127.135 23.763C125.544 23.8018 123.952 23.8406 122.361 23.7242C121.934 23.7242 122.205 23.0643 122.322 22.7149C123.098 20.3858 123.913 18.0956 124.69 15.8054C124.845 15.8054 124.961 15.8054 125.117 15.8442C125.854 18.1732 126.63 20.4635 127.368 22.7925C127.368 22.8702 127.368 22.909 127.407 22.9866C127.407 23.2972 127.562 23.763 127.174 23.8018L127.135 23.763Z" fill="black"/>
    <path d="M261.676 61.8427C261.676 57.8057 261.676 57.8445 257.639 57.9609C256.513 57.9609 256.242 58.3879 256.242 59.436C256.281 62.2309 256.242 64.9869 256.242 67.7818C256.242 68.7523 256.009 69.1792 254.961 69.1404C253.408 69.0628 251.855 69.0628 250.303 69.1404C249.06 69.2181 248.789 68.7134 248.828 67.5877C248.905 64.8705 248.828 62.1533 248.866 59.436C248.866 58.3879 248.633 57.9609 247.469 57.9609C243.898 58.0386 240.365 58.0386 236.794 57.9609C235.552 57.9609 235.241 58.3879 235.28 59.5525C235.358 61.8039 235.28 64.0553 235.28 66.3456C235.28 69.2181 235.28 69.1792 232.33 69.1792C231.127 69.1792 230.777 68.7911 230.816 67.6265C230.894 65.6856 230.816 63.7448 230.816 61.8039C230.816 57.8445 230.816 57.9221 226.934 57.9609C225.77 57.9609 225.382 58.3103 225.382 59.5136C225.459 63.7836 225.498 68.0535 225.382 72.3235C225.343 73.9538 225.925 74.2255 227.361 74.1867C232.718 74.1091 238.075 74.1867 243.432 74.1867C248.905 74.1867 254.417 74.1091 259.891 74.1867C261.172 74.1867 261.56 73.8374 261.521 72.5564C261.443 69.024 261.521 65.4527 261.521 61.8815L261.676 61.8427ZM241.607 69.1792C238.696 69.2181 240.21 67.1219 239.783 66.1515C239.783 65.6857 239.822 65.3363 239.783 65.0257C239.434 63.1625 240.482 63.046 241.996 62.9684C243.742 62.8908 244.092 63.6283 243.898 65.1034C243.82 65.6856 243.82 66.2679 243.898 66.8502C244.208 68.7134 243.471 69.1792 241.607 69.218V69.1792Z" fill="black"/>
    <path d="M259.504 32.9244C255.234 23.8799 250.925 14.8742 246.694 5.79088C246.034 4.35462 245.102 4.16054 243.782 4.23817C242.463 4.31581 241.182 3.96645 240.483 5.79088C239.396 8.54693 237.999 11.1865 236.718 13.8649C233.612 20.3863 230.546 26.9465 227.44 33.4679C226.897 34.6324 227.052 34.9429 228.411 34.9818C233.224 35.0206 233.224 35.0982 235.32 30.673C235.398 30.4789 235.514 30.3236 235.592 30.1684C235.902 29.1203 236.524 28.8097 237.61 28.8485C240.91 28.9262 244.209 29.1203 247.47 28.8097C250.381 28.4992 251.934 29.5861 252.633 32.2645C253.215 34.3995 254.38 35.6805 256.476 35.0206C257.291 35.0206 257.718 35.0206 258.184 35.0206C260.435 35.0206 260.435 35.0206 259.504 33.0409V32.9244ZM247.587 23.8799C244.947 23.8799 242.307 23.8799 239.668 23.8799C238.659 23.8799 238.62 23.4529 238.969 22.6766C240.444 19.5323 241.919 16.4269 243.627 12.8557C245.296 16.4657 246.771 19.6488 248.246 22.8706C248.596 23.647 248.363 23.9187 247.548 23.8799H247.587Z" fill="black"/>
    <path d="M291.528 59.5541C291.528 58.4284 291.256 57.9237 290.014 57.9625C286.521 58.0402 283.027 58.0402 279.533 57.9625C278.175 57.9625 277.942 58.4672 277.942 59.6705C278.019 62.3877 277.903 65.105 277.981 67.8222C278.058 69.6855 276.738 69.0644 275.846 69.1032C274.953 69.1032 273.672 69.6078 273.75 67.7834C273.866 65.8425 273.75 63.9016 273.75 61.9608C273.75 58.3895 273.75 58.4672 270.256 58.3507C268.626 58.3119 268.354 58.8942 268.354 60.3304C268.431 65.4543 268.354 70.5395 268.393 75.6634C268.393 77.0996 268.16 77.7207 266.529 77.6819C262.997 77.6043 262.997 77.6819 263.075 81.2531C263.075 81.4472 263.075 81.6413 263.075 81.8354C262.997 82.7282 263.424 82.9223 264.239 82.9223C267.034 82.9223 269.79 82.8835 272.585 82.9223C273.555 82.9223 273.827 82.5729 273.788 81.6801C273.75 79.8169 273.905 77.9148 273.75 76.0516C273.633 74.3824 274.254 73.9554 275.807 74.0718C278.058 74.1883 280.349 74.0718 282.6 74.0718C285.007 74.0718 287.375 74.033 289.781 74.0718C290.985 74.0718 291.528 73.8778 291.489 72.5191C291.412 68.1716 291.412 63.8628 291.489 59.5152L291.528 59.5541ZM285.861 69.142C282.949 69.569 282.6 69.2973 282.6 66.0754C282.6 65.8037 282.6 65.5708 282.6 65.2991C282.6 63.2417 284.269 62.1937 286.249 63.0477C286.676 63.2417 286.792 63.5523 286.792 63.9793C286.792 65.4155 286.792 66.8129 286.792 68.2492C286.792 68.8703 286.521 69.1032 285.861 69.2196V69.142Z" fill="black"/>
</svg>
