<svg width="334" height="192" viewBox="0 0 334 192" fill="none" xmlns="http://www.w3.org/2000/svg">
    <path d="M313.096 192H20.1598C9.00072 192 0 182.953 0 171.84V20.1598C0 9.00072 9.04664 0 20.1598 0H313.096C324.255 0 333.256 9.04664 333.256 20.1598V171.794C333.256 182.953 324.21 192 313.096 192Z" fill="#2A5834"/>
    <path d="M247 101H12V129H247V101Z" fill="#8EC099"/>
    <path d="M111.554 119.124C101.509 126.883 89.4386 129.378 77.4542 125.521C69.9531 123.117 58.5291 118.67 52.58 126.338C53.6147 121.166 55.2097 116.175 57.279 111.456C61.0295 105.512 64.7369 99.5684 68.4874 93.67C68.7461 93.2617 68.1425 92.7626 67.8408 93.1256C63.1418 98.5703 59.3051 104.65 56.4168 111.275C54.6924 113.997 52.968 116.765 51.2436 119.487C51.7609 117.854 52.2351 116.22 52.7525 114.587C52.8818 114.178 52.3214 113.815 52.0627 114.178C49.9072 117.037 47.7518 119.895 45.6394 122.754C45.5101 121.982 45.3376 121.211 45.2083 120.44C45.1652 120.167 44.8634 120.077 44.6479 120.213C41.8889 121.619 39.1299 123.026 36.3709 124.478C37.6641 120.848 33.8274 117.309 30.3786 117.264C28.6974 117.264 27.2316 117.763 25.8521 118.579C26.197 117.173 26.5419 115.766 26.8868 114.405C29.2578 110.412 30.508 105.694 30.4217 100.975C30.4217 100.612 29.9044 100.521 29.8182 100.884C28.6111 105.376 27.361 109.868 26.1539 114.405C24.1278 117.717 21.2825 120.485 17.9631 122.572C17.7907 122.663 17.9631 122.89 18.0924 122.799C21.1101 121.302 23.6536 119.079 25.6366 116.356C25.421 117.128 25.2055 117.899 25.0331 118.67C24.99 118.897 24.9037 119.079 24.8606 119.305C20.9808 122.119 17.8338 127.019 13.2211 128.108C13.0055 128.153 12.9193 128.516 13.0917 128.652C17.2734 132.055 21.9723 128.425 23.9984 124.296C24.6882 122.844 25.2055 121.302 25.6366 119.714C27.3179 118.625 29.1716 117.899 31.1977 117.944C34.3878 117.99 37.1899 122.209 35.2931 125.158C35.0776 125.521 35.5087 125.839 35.8104 125.703C38.7419 124.206 41.6733 122.708 44.6479 121.211C44.8203 122.119 44.9496 122.981 45.1221 123.888C45.1652 124.206 45.5963 124.296 45.8118 124.07C47.6655 121.619 49.5193 119.124 51.373 116.674C50.7694 118.579 50.209 120.485 49.6055 122.345C49.433 122.844 50.1228 123.117 50.3814 122.708C51.8472 120.349 53.3129 118.035 54.8217 115.676C53.3129 119.805 52.192 124.07 51.4592 128.471C51.373 128.97 52.0196 129.333 52.2783 128.834C54.9942 123.616 61.0295 122.391 66.2026 123.162C72.1517 124.024 77.5835 127.064 83.4895 128.062C93.4478 129.741 104.398 126.656 111.985 119.623C112.071 119.351 111.769 118.942 111.554 119.124ZM29.6027 103.697C29.344 106.465 28.6543 109.097 27.5334 111.547C28.2232 108.915 28.9129 106.329 29.6027 103.697ZM21.6274 126.384C19.8168 128.834 16.4543 129.923 13.8677 128.425C17.6182 127.155 20.2479 124.07 23.1794 121.438C23.5673 121.075 23.9553 120.757 24.3864 120.44C23.7398 122.527 22.9638 124.614 21.6274 126.384Z" fill="white"/>
    <path d="M309.928 116.275C309.928 119.444 307.769 122.061 305.106 122.061H272.088C269.425 122.061 267.266 119.444 267.266 116.275V88.0788C267.266 84.9102 269.425 82.2926 272.088 82.2926H305.106C307.769 82.2926 309.928 84.9102 309.928 88.0788V116.275Z" fill="#5F3813"/>
    <path d="M309.331 115.632C309.331 118.801 307.172 121.372 304.555 121.418H271.858C269.241 121.418 267.083 118.847 267.083 115.678V87.6657C267.083 84.4971 269.241 81.8795 271.858 81.8795H304.555C307.172 81.8795 309.331 84.4511 309.331 87.6198V115.632Z" fill="url(#paint0_linear_165_237)"/>
    <path d="M294.223 96.4827C294.223 96.6205 294.177 96.8042 294.131 96.9879C294.039 97.5848 293.947 97.9982 293.855 98.2278C293.809 98.3655 293.763 98.4114 293.763 98.4574C293.763 98.5033 293.717 98.5033 293.717 98.5033C293.074 99.3758 292.799 100.478 292.799 101.626C292.799 102.728 293.12 103.876 293.717 104.749C293.717 104.749 293.717 104.749 293.763 104.841C293.901 105.116 294.177 105.943 294.177 107.825C294.177 111.361 292.11 114.255 289.401 114.943L289.171 114.989V121.372H289.722V115.54C289.952 115.494 290.135 115.403 290.319 115.311H309.239V114.622H291.513C293.442 113.244 294.728 110.673 294.728 107.78C294.728 107.366 294.728 107.045 294.682 106.723H309.239V106.035H294.59C294.406 104.749 294.085 104.289 294.085 104.244C293.58 103.509 293.304 102.544 293.304 101.58C293.304 100.616 293.58 99.6513 294.085 98.9166C294.131 98.8707 294.452 98.3655 294.59 97.1256H309.239V96.4368H294.314L294.223 96.4827ZM290.457 87.9412C290.227 87.8494 290.044 87.7575 289.814 87.7116V81.8795H289.263V88.2627L289.493 88.3086C289.814 88.4004 290.044 88.4464 290.365 88.5841H290.411C290.411 88.5841 290.411 88.5841 290.457 88.5841H309.423V87.8953L290.457 87.9412ZM286.691 87.7116C286.462 87.7575 286.278 87.8494 286.094 87.9412H267.174V88.6301H284.9C282.972 90.0077 281.686 92.5794 281.686 95.4724C281.686 95.8857 281.686 96.2072 281.732 96.5286H267.174V97.2175H281.824C282.007 98.5033 282.329 98.9625 282.329 99.0084C282.834 99.7432 283.109 100.708 283.109 101.672C283.109 102.636 282.834 103.601 282.329 104.335C282.283 104.381 281.961 104.886 281.824 106.126H267.174V106.815H281.732C281.732 107.137 281.686 107.504 281.686 107.871C281.686 110.764 282.972 113.336 284.9 114.714H267.174V115.403H286.048C286.278 115.494 286.462 115.586 286.691 115.632V121.464H287.242V115.081L287.013 115.035C284.257 114.346 282.237 111.407 282.237 107.917C282.237 106.677 282.375 105.851 282.512 105.392C282.558 105.162 282.65 104.978 282.696 104.886C282.742 104.795 282.742 104.795 282.742 104.795C283.385 103.922 283.66 102.82 283.66 101.672C283.66 100.57 283.339 99.4217 282.742 98.5492C282.742 98.5492 282.742 98.5492 282.696 98.4574C282.558 98.1818 282.283 97.3552 282.283 95.4724C282.283 92.3497 283.936 89.6403 286.232 88.6301H286.278C286.554 88.5382 286.829 88.4004 287.105 88.3545L287.334 88.3086V81.9254H286.783L286.691 87.7116Z" fill="#939393"/>
    <path d="M287.242 88.2625L287.013 88.3084C286.737 88.4002 286.462 88.4921 286.186 88.5839H286.14C283.844 89.5942 282.191 92.2577 282.191 95.4263C282.191 96.9417 282.375 97.7683 282.512 98.1816C282.42 97.6765 282.329 96.9876 282.329 95.9314C282.329 92.8087 283.982 90.1453 286.278 89.0891H286.324C286.599 88.9972 286.829 88.8595 287.105 88.8135L287.334 88.7676V82.3844H289.217V81.8793H287.196L287.242 88.2625ZM282.65 104.84C282.604 104.932 282.558 105.07 282.466 105.345C282.329 105.805 282.191 106.631 282.191 107.871C282.191 108.744 282.329 109.616 282.558 110.397C282.42 109.754 282.329 109.065 282.329 108.376C282.329 107.136 282.466 106.31 282.604 105.851C282.65 105.621 282.742 105.437 282.788 105.345C282.834 105.254 282.834 105.254 282.834 105.254C283.477 104.381 283.752 103.279 283.752 102.131C283.752 101.488 283.66 100.891 283.477 100.294C283.569 100.707 283.614 101.167 283.614 101.58C283.614 102.682 283.293 103.83 282.696 104.703C282.696 104.748 282.696 104.748 282.65 104.84ZM290.365 88.5839C290.365 88.6298 290.365 88.6298 290.365 88.5839H290.319C290.044 88.4462 289.814 88.4002 289.447 88.3084H289.355V88.8135L289.584 88.8595C289.906 88.9513 290.135 88.9972 290.457 89.135H290.503C290.503 89.135 290.503 89.135 290.549 89.135H309.377V88.6298L290.365 88.5839ZM294.177 99.0082C293.671 99.743 293.396 100.707 293.396 101.672C293.396 102.223 293.488 102.774 293.671 103.279C293.58 102.912 293.534 102.59 293.534 102.223C293.534 101.258 293.809 100.294 294.314 99.5593C294.36 99.5134 294.682 99.0082 294.819 97.7683H309.331V97.2632H294.682C294.544 98.4572 294.222 98.9164 294.177 99.0082ZM294.819 107.871C294.819 110.764 293.534 113.336 291.605 114.714H292.386C293.947 113.244 294.957 110.994 294.957 108.422C294.957 108.009 294.957 107.687 294.911 107.366H309.331V106.861H294.773C294.819 107.09 294.819 107.458 294.819 107.871ZM289.952 82.3844H304.739C306.759 82.3844 308.504 83.9458 309.193 86.1041C308.642 83.6703 306.805 81.8334 304.601 81.8334H289.814V87.6655C289.86 87.6655 289.906 87.7114 289.952 87.7114V82.3844ZM287.242 121.418H287.38V115.586L287.242 115.54V121.418ZM286.002 115.356H267.128V115.632C267.128 116.321 267.22 117.01 267.45 117.653C267.358 117.193 267.266 116.688 267.266 116.137V115.862H286.14C286.324 115.953 286.462 115.999 286.645 116.045V115.586C286.462 115.54 286.232 115.448 286.002 115.356ZM284.395 114.714H284.9C283.569 113.749 282.558 112.234 282.053 110.443C282.375 112.142 283.247 113.657 284.395 114.714ZM289.814 115.586V121.418H289.952V116.137C290.181 116.091 290.365 115.999 290.549 115.908H309.331C309.331 115.816 309.331 115.77 309.331 115.678V115.402H290.411C290.227 115.448 289.998 115.54 289.814 115.586ZM267.266 107.32H281.64C281.64 107.136 281.64 106.953 281.686 106.815H267.128V114.714H267.266V107.32ZM272.042 82.4304H286.691V81.8793H271.904C269.287 81.8793 267.128 84.4509 267.128 87.6655V87.941H267.266C267.404 84.8642 269.47 82.4304 272.042 82.4304ZM267.266 89.135H284.211C284.395 88.9513 284.625 88.7676 284.854 88.6298H267.128V96.5284H267.266V89.135ZM267.266 97.7224H281.824C281.778 97.5846 281.778 97.4009 281.732 97.2173H267.083V106.126H267.22L267.266 97.7224Z" fill="white"/>
    <path d="M237.612 86V74.3636H241.544C242.457 74.3636 243.203 74.5284 243.783 74.858C244.366 75.1837 244.798 75.625 245.078 76.1818C245.358 76.7386 245.499 77.3599 245.499 78.0455C245.499 78.7311 245.358 79.3542 245.078 79.9148C244.802 80.4754 244.374 80.9224 243.794 81.2557C243.214 81.5852 242.472 81.75 241.567 81.75H238.749V80.5H241.521C242.146 80.5 242.648 80.3921 243.027 80.1761C243.406 79.9602 243.68 79.6686 243.851 79.3011C244.025 78.9299 244.112 78.5114 244.112 78.0455C244.112 77.5796 244.025 77.1629 243.851 76.7955C243.68 76.428 243.404 76.1402 243.021 75.9318C242.639 75.7197 242.131 75.6136 241.499 75.6136H239.021V86H237.612Z" fill="white"/>
    <path d="M233.773 77.2728C233.705 76.697 233.428 76.25 232.943 75.9319C232.458 75.6137 231.864 75.4546 231.159 75.4546C230.644 75.4546 230.193 75.5379 229.807 75.7046C229.424 75.8713 229.125 76.1004 228.909 76.3921C228.697 76.6838 228.591 77.0152 228.591 77.3864C228.591 77.697 228.665 77.9641 228.812 78.1875C228.964 78.4072 229.157 78.591 229.392 78.7387C229.627 78.8826 229.873 79.0019 230.131 79.0966C230.388 79.1875 230.625 79.2614 230.841 79.3182L232.023 79.6364C232.326 79.716 232.663 79.8258 233.034 79.966C233.409 80.1061 233.767 80.2974 234.108 80.5398C234.453 80.7785 234.737 81.0853 234.96 81.4603C235.184 81.8353 235.295 82.2955 235.295 82.841C235.295 83.4697 235.131 84.0379 234.801 84.5455C234.475 85.0531 233.998 85.4565 233.369 85.7557C232.744 86.055 231.985 86.2046 231.091 86.2046C230.258 86.2046 229.536 86.0701 228.926 85.8012C228.32 85.5322 227.843 85.1572 227.494 84.6762C227.15 84.1951 226.955 83.6364 226.909 83H228.364C228.401 83.4394 228.549 83.8031 228.807 84.091C229.068 84.375 229.398 84.5872 229.795 84.7273C230.197 84.8637 230.629 84.9319 231.091 84.9319C231.629 84.9319 232.112 84.8447 232.54 84.6705C232.968 84.4925 233.307 84.2463 233.557 83.9319C233.807 83.6137 233.932 83.2425 233.932 82.8182C233.932 82.4319 233.824 82.1175 233.608 81.875C233.392 81.6326 233.108 81.4357 232.756 81.2841C232.403 81.1326 232.023 81 231.614 80.8864L230.182 80.4773C229.273 80.216 228.553 79.8428 228.023 79.358C227.492 78.8732 227.227 78.2387 227.227 77.4546C227.227 76.8031 227.403 76.2349 227.756 75.75C228.112 75.2614 228.589 74.8826 229.187 74.6137C229.79 74.341 230.462 74.2046 231.205 74.2046C231.955 74.2046 232.621 74.3391 233.205 74.608C233.788 74.8732 234.25 75.2368 234.591 75.6989C234.936 76.161 235.117 76.6857 235.136 77.2728H233.773Z" fill="white"/>
    <path d="M211.676 18.6798C211.329 19.261 210.982 19.8423 210.635 20.4236C210.4 20.8192 210.158 21.2067 209.94 21.6022C209.803 21.8606 209.722 21.8444 209.585 21.6022C209.084 20.6981 208.568 19.8019 208.059 18.8977C208.011 18.817 207.962 18.7444 207.914 18.6636C207.761 18.7363 207.833 18.8574 207.833 18.9543C207.833 20.1087 207.817 21.2713 207.833 22.4257C207.833 22.7163 207.744 22.7809 207.47 22.7809C206.622 22.7809 206.622 22.7809 206.622 21.9494C206.622 20.2379 206.622 18.5345 206.622 16.823C206.622 16.5 206.711 16.4193 207.042 16.3789C207.769 16.2901 208.196 16.5323 208.503 17.2185C208.858 18.0097 209.343 18.7444 209.803 19.5517C210.376 18.5829 210.925 17.6787 211.442 16.7584C211.595 16.4839 211.765 16.387 212.072 16.387C213 16.4032 213 16.387 213 17.3073C213 19.0027 213 20.6981 213 22.3934C213 22.676 212.96 22.789 212.637 22.789C211.781 22.7729 211.781 22.789 211.781 21.9171C211.781 20.9725 211.781 20.0361 211.781 19.0915C211.781 18.9623 211.773 18.8412 211.765 18.7121L211.692 18.6879L211.676 18.6798Z" fill="white"/>
    <path d="M158.264 30.9185C157.562 30.9185 156.868 30.9105 156.165 30.9185C155.939 30.9185 155.858 30.862 155.867 30.6279C155.883 30.1032 155.867 29.5784 155.875 29.0537C155.875 28.7872 155.826 28.6661 155.519 28.6742C155.245 28.6742 155.14 28.755 155.156 29.0375C155.18 29.5461 155.156 30.0628 155.164 30.5714C155.164 30.8217 155.116 30.9266 154.833 30.9185C154.082 30.9024 153.323 30.9024 152.573 30.9185C152.314 30.9185 152.258 30.8297 152.258 30.5956C152.274 29.6914 152.274 28.7953 152.258 27.8911C152.258 27.6166 152.347 27.5521 152.605 27.5521C153.332 27.5521 153.332 27.544 153.332 28.2786C153.332 28.7065 153.356 29.1425 153.332 29.5703C153.307 29.8852 153.485 29.8852 153.703 29.8771C153.905 29.8771 154.098 29.9175 154.082 29.5784C154.05 29.0294 154.082 28.4724 154.066 27.9234C154.058 27.6489 154.123 27.544 154.421 27.5521C155.164 27.5682 155.899 27.5682 156.642 27.5521C156.868 27.5521 156.948 27.6247 156.94 27.8508C156.924 28.4159 156.948 28.981 156.932 29.5461C156.924 29.8206 157.021 29.9013 157.279 29.869C157.384 29.8529 157.497 29.8529 157.602 29.869C157.828 29.8933 157.909 29.8045 157.901 29.5703C157.885 29.0052 157.901 28.4401 157.893 27.875C157.893 27.6489 157.925 27.5359 158.192 27.544C158.918 27.5601 159.645 27.5601 160.371 27.544C160.597 27.544 160.678 27.6086 160.67 27.8427C160.646 28.8034 160.791 28.5935 159.919 28.6177C159.903 28.6177 159.895 28.6177 159.879 28.6177C158.894 28.6177 158.902 28.6177 158.934 29.6026C158.942 29.8206 159.023 29.8771 159.217 29.869C159.596 29.861 159.968 29.8771 160.347 29.869C160.597 29.8529 160.662 29.9498 160.662 30.192C160.662 30.9105 160.678 30.9105 159.943 30.9105C159.378 30.9105 158.813 30.9105 158.248 30.9105L158.264 30.9185Z" fill="white"/>
    <path d="M194.319 19.6002C194.319 18.6556 194.335 17.7191 194.319 16.7746C194.319 16.4597 194.416 16.387 194.714 16.3951C195.869 16.4113 197.023 16.4113 198.186 16.3951C198.468 16.3951 198.557 16.4758 198.549 16.7584C198.525 17.5415 198.614 17.4043 197.919 17.4123C197.233 17.4123 196.547 17.4204 195.861 17.4123C195.619 17.4123 195.522 17.4769 195.53 17.7272C195.546 18.0097 195.546 18.2923 195.53 18.5749C195.506 18.8493 195.602 18.9462 195.885 18.9462C196.636 18.9301 197.395 18.9462 198.145 18.9301C198.436 18.9301 198.533 19.027 198.501 19.3014C198.485 19.4064 198.493 19.5194 198.501 19.6244C198.525 19.8666 198.428 19.9473 198.178 19.9473C197.427 19.9311 196.668 19.9473 195.917 19.9392C195.627 19.9392 195.506 20.0119 195.53 20.3187C195.554 20.6658 195.554 21.021 195.53 21.3682C195.514 21.6346 195.602 21.7153 195.869 21.7153C196.62 21.6992 197.379 21.7153 198.129 21.7072C198.428 21.7072 198.557 21.7637 198.549 22.1028C198.525 22.781 198.549 22.781 197.871 22.781C196.805 22.781 195.748 22.7729 194.682 22.781C194.408 22.781 194.311 22.7245 194.319 22.4257C194.335 21.4812 194.319 20.5447 194.319 19.6002Z" fill="white"/>
    <path d="M190.597 20.1006C190.597 19.3498 190.581 18.5909 190.597 17.8401C190.597 17.5495 190.508 17.4687 190.234 17.4849C189.855 17.5091 189.483 17.4849 189.104 17.493C188.902 17.493 188.829 17.4284 188.821 17.2185C188.781 16.395 188.773 16.395 189.58 16.395C190.791 16.395 192.002 16.4031 193.213 16.395C193.528 16.395 193.633 16.4677 193.625 16.7987C193.609 17.501 193.625 17.493 192.922 17.501C192.575 17.501 192.139 17.3476 191.921 17.5818C191.719 17.7917 191.865 18.2276 191.865 18.5586C191.865 19.8342 191.857 21.1178 191.865 22.3934C191.865 22.6678 191.832 22.797 191.501 22.7889C190.605 22.7728 190.605 22.7889 190.605 21.8928C190.605 21.3035 190.605 20.7061 190.605 20.1167L190.597 20.1006Z" fill="white"/>
    <path d="M181.902 29.8609C181.902 30.4906 181.902 31.1284 181.902 31.7581C181.902 31.9842 181.87 32.1053 181.595 32.0972C180.57 32.0811 179.553 32.0891 178.528 32.0972C178.326 32.0972 178.245 32.0407 178.245 31.8227C178.253 30.9347 178.253 30.0466 178.245 29.1586C178.245 28.9245 178.326 28.8679 178.552 28.8599C179.327 28.8437 179.327 28.8357 179.327 29.6026C179.327 30.0224 179.335 30.4341 179.327 30.8539C179.327 31.0477 179.392 31.1284 179.585 31.1042C179.601 31.1042 179.609 31.1042 179.626 31.1042C179.997 31.08 180.473 31.2576 180.715 31.0315C180.942 30.8216 180.78 30.3453 180.78 29.982C180.788 29.2797 180.788 28.5854 180.78 27.883C180.78 27.6408 180.845 27.5601 181.095 27.5601C181.902 27.552 181.902 27.5359 181.902 28.327C181.902 28.8357 181.902 29.3523 181.902 29.8609Z" fill="white"/>
    <path d="M176.348 28.2383C176.348 29.0295 176.34 29.8207 176.348 30.6118C176.348 30.854 176.292 30.9267 176.033 30.9267C175.234 30.9267 175.234 30.9348 175.234 30.1274C175.234 28.7227 175.234 27.3099 175.234 25.9052C175.234 25.6226 175.323 25.5419 175.597 25.55C176.348 25.5581 176.348 25.55 176.348 26.2685C176.348 26.9224 176.348 27.5844 176.348 28.2383Z" fill="white"/>
    <path d="M172.642 26.4623C172.513 26.6884 172.319 26.8579 172.118 27.0032C171.972 27.1082 171.859 26.9709 171.779 26.874C171.585 26.6238 171.415 26.6238 171.221 26.874C170.979 27.1889 170.818 26.9467 170.64 26.7772C170.463 26.6076 170.317 26.4623 170.576 26.2201C170.979 25.8326 170.979 25.8003 171.351 26.1717C171.569 26.3816 171.641 26.1878 171.762 26.091C171.867 26.0021 171.956 25.8084 172.126 25.9214C172.328 26.0506 172.489 26.2282 172.634 26.4623H172.642Z" fill="white"/>
    <path d="M204.693 31.306C204.774 31.3787 204.87 31.4433 204.943 31.5402C205.097 31.7501 205.242 31.742 205.379 31.5402C205.629 31.1849 205.815 31.3706 206.041 31.5886C206.291 31.8308 206.251 31.9761 206.025 32.2021C205.767 32.4686 205.557 32.5493 205.315 32.2183C205.153 31.9922 205.024 32.1133 204.911 32.2587C204.636 32.6219 204.459 32.3798 204.241 32.1779C203.982 31.9438 204.047 31.7743 204.281 31.5886C204.402 31.4917 204.483 31.3302 204.685 31.306H204.693Z" fill="white"/>
    <path d="M154.696 31.9036C154.567 32.1135 154.389 32.283 154.195 32.4203C154.034 32.5333 153.913 32.3799 153.824 32.275C153.646 32.0651 153.501 32.0328 153.323 32.275C153.065 32.6302 152.888 32.3638 152.686 32.1862C152.435 31.9682 152.492 31.8148 152.702 31.5888C152.968 31.3143 153.17 31.2174 153.428 31.5807C153.622 31.8552 153.735 31.5807 153.864 31.4919C153.977 31.4111 154.058 31.2174 154.228 31.3627C154.405 31.5161 154.599 31.6695 154.696 31.9117V31.9036Z" fill="white"/>
    <path d="M203.304 26.3169C203.159 26.5429 202.989 26.7206 202.787 26.8497C202.61 26.9627 202.489 26.7932 202.392 26.6721C202.23 26.4784 202.093 26.4784 201.948 26.6721C201.681 27.0435 201.496 26.7932 201.278 26.5995C201.028 26.3734 201.1 26.22 201.31 26.0101C201.552 25.7679 201.746 25.6145 202.004 25.9778C202.198 26.2604 202.327 26.0343 202.473 25.9052C202.578 25.8164 202.666 25.6388 202.836 25.7841C203.013 25.9375 203.199 26.0989 203.312 26.3088L203.304 26.3169Z" fill="white"/>
    <path d="M211.579 26.3734C211.579 26.4864 211.063 26.9869 210.958 26.9466C210.707 26.8416 210.514 26.6559 210.417 26.3976C210.376 26.2765 210.861 25.7921 210.998 25.7921C211.103 25.7921 211.571 26.2684 211.571 26.3734H211.579Z" fill="white"/>
    <path d="M179.787 27.552C179.65 27.552 179.222 27.1322 179.222 26.9869C179.222 26.8577 179.666 26.4056 179.787 26.4056C179.9 26.4056 180.368 26.8658 180.368 26.9788C180.368 27.0838 179.9 27.552 179.787 27.552Z" fill="white"/>
    <path d="M196.757 30.5714C196.741 29.8287 196.757 29.094 196.757 28.3513C196.757 27.5278 196.757 27.5359 195.942 27.5601C195.707 27.5601 195.643 27.6408 195.643 27.8669C195.659 28.4159 195.643 28.9729 195.643 29.5219C195.643 29.7479 195.643 29.8932 195.336 29.8932C195.037 29.8932 194.973 29.7721 194.989 29.5138C195.005 29.2716 194.989 29.0294 194.989 28.7872C194.989 27.9961 194.989 28.0041 194.198 28.0122C193.923 28.0122 193.851 28.1172 193.867 28.3674C193.883 28.7307 193.867 29.094 193.867 29.4573C193.867 29.6833 193.915 29.9013 193.544 29.8932C193.197 29.8932 193.181 29.7318 193.197 29.4734C193.213 29.2312 193.197 28.9891 193.197 28.7469C193.172 27.9073 193.366 28.0364 192.446 28.0122C192.163 28.0041 192.107 28.1172 192.115 28.3674C192.131 28.7549 192.091 29.1505 192.131 29.538C192.171 29.9417 191.921 29.8932 191.679 29.8852C191.437 29.8852 191.178 29.974 191.186 29.538C191.219 28.4643 191.195 27.3825 191.195 26.3088C191.195 25.5418 191.195 25.5499 190.428 25.5499C190.169 25.5499 190.08 25.6226 190.089 25.889C190.105 27.0354 190.097 28.1737 190.089 29.3201C190.089 29.9498 190.218 29.8771 189.507 29.9013C189.241 29.9094 189.192 29.8125 189.2 29.5784C189.217 29.1909 189.184 28.7953 189.209 28.4078C189.225 28.1172 189.12 28.0445 188.845 28.0526C187.893 28.0687 186.932 28.0526 185.979 28.0687C185.689 28.0687 185.616 27.9799 185.624 27.7054C185.648 27.2372 185.624 26.7609 185.624 26.2926C185.624 25.566 185.624 25.5903 184.906 25.566C184.575 25.558 184.51 25.671 184.51 25.9778C184.526 27.1726 184.502 28.3755 184.526 29.5703C184.534 29.982 184.292 29.9013 184.058 29.9094C183.832 29.9094 183.622 29.9659 183.63 29.5865C183.662 28.4724 183.646 27.3502 183.646 26.2361C183.646 25.5338 183.646 25.5499 182.944 25.5338C182.621 25.5257 182.54 25.6306 182.54 25.9455C182.556 27.4955 182.556 29.0375 182.54 30.5875C182.54 30.8943 182.629 30.967 182.928 30.967C185.164 30.9508 187.392 30.967 189.628 30.967C191.873 30.967 194.125 30.967 196.369 30.967C196.644 30.967 196.741 30.9024 196.733 30.6118L196.757 30.5714ZM187.909 29.8852C187.578 29.869 187.239 29.8852 186.908 29.8852C186.585 29.8852 186.262 29.869 185.947 29.8852C185.664 29.9013 185.64 29.756 185.656 29.5461C185.673 29.3604 185.576 29.1263 185.923 29.1344C186.593 29.1505 187.263 29.1424 187.933 29.1344C188.288 29.1344 188.159 29.3846 188.183 29.5622C188.207 29.756 188.183 29.9013 187.917 29.8852H187.909Z" fill="white"/>
    <path d="M174.427 26.3088C174.427 25.5337 174.427 25.5418 173.635 25.5418C173.361 25.5418 173.296 25.6306 173.304 25.889C173.313 26.9385 173.304 27.988 173.304 29.0375C173.304 29.9255 173.304 29.9174 172.392 29.8852C172.19 29.8852 172.11 29.8286 172.118 29.6107C172.134 29.207 172.118 28.8034 172.118 28.3997C172.118 27.6005 172.118 27.6085 171.327 27.6166C171.068 27.6166 171.004 27.7216 171.012 27.9557C171.028 28.3028 171.012 28.658 171.012 29.0052C171.012 29.9255 171.012 29.9094 170.083 29.8852C169.841 29.8852 169.793 29.7883 169.793 29.5703C169.809 29.1828 169.776 28.7872 169.801 28.3997C169.825 28.0848 169.704 28.0203 169.413 28.0283C168.461 28.0445 167.5 28.0283 166.547 28.0445C166.281 28.0445 166.2 27.9718 166.208 27.7054C166.232 27.221 166.208 26.7366 166.208 26.2522C166.208 25.5499 166.208 25.566 165.514 25.5418C165.175 25.5337 165.086 25.6387 165.094 25.9697C165.118 27.1241 165.102 28.2867 165.102 29.4411C165.102 29.6753 165.175 29.9094 164.763 29.9013C164.343 29.8932 164.44 29.643 164.44 29.425C164.44 28.9164 164.424 28.3997 164.44 27.8911C164.44 27.6408 164.367 27.5682 164.117 27.5682C163.31 27.5843 162.503 27.5762 161.695 27.5682C161.493 27.5682 161.413 27.6166 161.413 27.8346C161.421 28.7791 161.421 29.7156 161.413 30.6602C161.413 30.8781 161.485 30.9347 161.695 30.9266C162.123 30.9104 162.559 30.9427 162.987 30.9185C163.358 30.8943 163.31 31.1123 163.326 31.3464C163.342 31.6209 163.27 31.742 162.971 31.7178C162.704 31.6935 162.43 31.7178 162.164 31.7178C161.38 31.7178 161.389 31.7178 161.413 32.4928C161.413 32.7027 161.485 32.7673 161.695 32.7673C162.519 32.7592 163.334 32.7511 164.158 32.7673C164.408 32.7673 164.448 32.6623 164.44 32.4524C164.432 32.0649 164.456 31.6693 164.432 31.2818C164.416 30.9912 164.521 30.9185 164.795 30.9266C166.345 30.9347 167.887 30.9266 169.437 30.9266C170.955 30.9266 172.481 30.9104 173.999 30.9347C174.346 30.9347 174.419 30.8297 174.41 30.5068C174.394 29.1101 174.41 27.7054 174.41 26.3088H174.427ZM163.358 29.2877C163.358 29.4088 163.358 29.5299 163.358 29.651C163.366 29.8206 163.294 29.8771 163.124 29.8852C162.495 29.9336 162.495 29.9417 162.495 29.3281C162.495 29.2716 162.495 29.2232 162.495 29.1666C162.495 28.8922 162.414 28.6257 162.898 28.6338C163.326 28.65 163.399 28.8114 163.358 29.1586C163.358 29.1989 163.358 29.2393 163.358 29.2797V29.2877ZM168.493 29.8852C168.178 29.8609 167.855 29.8852 167.532 29.8852C167.242 29.8852 166.943 29.8771 166.652 29.8852C166.378 29.9013 166.216 29.869 166.224 29.5138C166.224 29.1666 166.362 29.1182 166.652 29.1263C167.266 29.1424 167.879 29.1424 168.501 29.1263C168.848 29.1182 168.759 29.3443 168.767 29.5299C168.767 29.7075 168.824 29.9174 168.509 29.8852H168.493Z" fill="white"/>
    <path d="M183.178 18.93C183.178 20.1491 183.162 21.3681 183.186 22.5872C183.194 22.9747 183.105 23.12 182.702 23.0715C182.395 23.0393 182.08 23.0473 181.773 23.0715C181.523 23.0877 181.45 22.9989 181.45 22.7486C181.466 21.9575 181.45 21.1663 181.45 20.367C181.45 18.9704 181.45 17.5737 181.45 16.169C181.45 15.8299 181.628 15.6604 181.983 15.6604C182.225 15.6604 182.476 15.6927 182.71 15.6604C183.186 15.5878 183.428 15.8057 183.638 16.2013C184.227 17.3154 184.857 18.4134 185.471 19.5194C185.527 19.6162 185.551 19.7454 185.737 19.81C185.737 19.3741 185.737 18.9462 185.737 18.5264C185.737 17.6787 185.745 16.831 185.737 15.9833C185.737 15.7089 185.826 15.6362 186.084 15.6443C186.448 15.6604 186.811 15.6604 187.174 15.6443C187.384 15.6443 187.457 15.7169 187.457 15.9268C187.457 18.2115 187.457 20.4962 187.457 22.7809C187.457 23.0231 187.352 23.0715 187.142 23.0635C186.738 23.0554 186.335 23.0473 185.931 23.0635C185.681 23.0796 185.551 22.9827 185.43 22.7648C184.752 21.5296 184.058 20.3025 183.372 19.0673C183.339 19.0108 183.299 18.9543 183.267 18.9058C183.243 18.9058 183.21 18.9139 183.186 18.922L183.178 18.93Z" fill="white"/>
    <path d="M155.681 17.6706C155.536 17.6706 155.382 17.6706 155.237 17.6706C155.035 17.6706 154.882 17.6706 154.736 17.4526C154.526 17.1216 154.042 17.1377 153.84 17.4203C153.655 17.6786 153.776 17.9854 154.147 18.1549C154.631 18.381 155.172 18.4698 155.632 18.7685C156.787 19.5032 157.142 21.0532 156.375 22.1108C155.519 23.2814 153.84 23.5478 152.775 22.7001C152.218 22.2561 151.895 21.6991 151.79 21.0048C151.749 20.7303 151.83 20.6415 152.105 20.6657C152.331 20.6818 152.565 20.6657 152.791 20.6657C153.138 20.6657 153.477 20.5769 153.606 21.1016C153.695 21.4407 154.082 21.5618 154.454 21.473C154.777 21.3923 155.019 21.2227 155.051 20.8514C155.084 20.4477 154.833 20.2378 154.494 20.1086C154.082 19.9472 153.655 19.8261 153.259 19.6243C152.347 19.156 151.862 18.1307 152.113 17.1539C152.363 16.1447 153.267 15.4666 154.317 15.507C155.406 15.5393 156.294 16.2658 156.496 17.2588C156.561 17.5575 156.537 17.7271 156.165 17.6786C156.004 17.6544 155.842 17.6786 155.681 17.6786V17.6706Z" fill="white"/>
    <path d="M171.06 20.2057C171.06 19.3581 171.06 18.5104 171.06 17.6627C171.06 17.4286 171.004 17.3156 170.745 17.3317C170.479 17.3478 170.204 17.3317 169.938 17.3317C169.728 17.3398 169.615 17.2913 169.623 17.0411C169.639 16.6536 169.631 16.258 169.623 15.8705C169.623 15.6848 169.688 15.604 169.882 15.6121C171.23 15.6121 172.57 15.6121 173.918 15.6121C174.104 15.6121 174.185 15.6686 174.185 15.8624C174.185 16.266 174.185 16.6697 174.185 17.0734C174.185 17.2671 174.104 17.3317 173.918 17.3317C173.652 17.3236 173.377 17.3478 173.111 17.3317C172.812 17.3075 172.756 17.4286 172.756 17.7031C172.764 19.3581 172.756 21.013 172.772 22.668C172.772 22.991 172.691 23.0959 172.368 23.0717C172.045 23.0475 171.722 23.0475 171.399 23.0717C171.101 23.0959 171.044 22.9748 171.052 22.7084C171.068 21.8769 171.052 21.0373 171.052 20.2057H171.06Z" fill="white"/>
    <path d="M164.844 19.3417C164.844 18.2438 164.852 17.1378 164.844 16.0398C164.844 15.7492 164.9 15.612 165.215 15.6442C165.651 15.6927 166.216 15.4586 166.491 15.7411C166.741 15.9995 166.555 16.5565 166.555 16.9844C166.555 18.3165 166.571 19.6404 166.555 20.9725C166.555 21.3035 166.652 21.3762 166.959 21.3681C167.613 21.3439 168.275 21.3681 168.937 21.36C169.203 21.36 169.284 21.4408 169.276 21.6991C169.26 22.0624 169.268 22.4257 169.276 22.789C169.276 22.9827 169.244 23.0796 169.018 23.0796C167.726 23.0715 166.442 23.0635 165.151 23.0796C164.868 23.0796 164.86 22.9424 164.86 22.7325C164.86 21.6022 164.86 20.4801 164.86 19.3498L164.844 19.3417Z" fill="white"/>
    <path d="M160.638 15.6523C158.603 15.6603 156.948 17.3315 156.956 19.3578C156.956 21.3842 158.636 23.0553 160.662 23.0472C162.705 23.0472 164.384 21.3519 164.368 19.3175C164.351 17.2911 162.672 15.6442 160.646 15.6523H160.638ZM160.662 21.3438C159.556 21.3438 158.66 20.4558 158.66 19.3578C158.66 18.2518 159.556 17.3638 160.662 17.3638C161.752 17.3638 162.624 18.2437 162.64 19.3336C162.648 20.4477 161.776 21.3357 160.662 21.3438Z" fill="white"/>
    <path d="M180.877 22.7648C180.126 20.4801 179.4 18.1954 178.665 15.9026C178.608 15.717 178.512 15.6443 178.318 15.6443C177.955 15.6524 177.591 15.6604 177.228 15.6443C177.01 15.6362 176.921 15.725 176.857 15.9188C176.082 18.2035 175.307 20.4963 174.515 22.7809C174.443 22.9909 174.467 23.0797 174.709 23.0635C175.008 23.0474 175.307 23.0231 175.597 23.0635C176.082 23.1362 176.364 22.9747 176.437 22.4822C176.477 22.2158 176.631 22.1512 176.889 22.1593C177.438 22.1755 177.995 22.1755 178.544 22.1593C178.778 22.1593 178.899 22.2158 178.98 22.458C179.182 23.0635 179.198 23.0635 179.86 23.0554C179.916 23.0554 179.965 23.0554 180.021 23.0554C180.223 23.0554 180.425 23.0474 180.627 23.0554C180.869 23.0716 180.966 23.0393 180.869 22.7487L180.877 22.7648ZM178.221 20.4478C177.89 20.4559 177.559 20.464 177.228 20.4397C177.139 20.4397 177.196 20.3025 177.22 20.2298C177.381 19.7455 177.551 19.2691 177.712 18.7928C177.745 18.7928 177.769 18.7928 177.801 18.8009C177.955 19.2853 178.116 19.7616 178.269 20.246C178.269 20.2621 178.269 20.2702 178.277 20.2864C178.277 20.3509 178.31 20.4478 178.229 20.4559L178.221 20.4478Z" fill="white"/>
    <path d="M206.203 28.3674C206.203 27.5278 206.203 27.5359 205.363 27.5601C205.129 27.5601 205.072 27.6489 205.072 27.8669C205.08 28.4482 205.072 29.0213 205.072 29.6026C205.072 29.8044 205.024 29.8932 204.806 29.8852C204.483 29.869 204.16 29.869 203.837 29.8852C203.579 29.9013 203.522 29.7964 203.53 29.5622C203.546 28.9971 203.53 28.432 203.538 27.8669C203.538 27.6489 203.49 27.5601 203.248 27.5601C202.505 27.5763 201.77 27.5763 201.028 27.5601C200.769 27.5601 200.705 27.6489 200.713 27.8911C200.729 28.3593 200.713 28.8276 200.713 29.3039C200.713 29.9013 200.713 29.8932 200.099 29.8932C199.849 29.8932 199.776 29.8125 199.784 29.5703C199.801 29.1667 199.784 28.763 199.784 28.3593C199.784 27.5359 199.784 27.552 198.977 27.5601C198.735 27.5601 198.654 27.6328 198.654 27.883C198.67 28.7711 198.678 29.6591 198.654 30.5472C198.646 30.8862 198.767 30.9428 199.066 30.9347C200.18 30.9185 201.294 30.9347 202.408 30.9347C203.547 30.9347 204.693 30.9185 205.831 30.9347C206.098 30.9347 206.178 30.862 206.17 30.5956C206.154 29.861 206.17 29.1182 206.17 28.3755L206.203 28.3674ZM202.029 29.8932C201.423 29.9013 201.738 29.4654 201.649 29.2635C201.649 29.1667 201.657 29.094 201.649 29.0294C201.577 28.6419 201.795 28.6177 202.109 28.6015C202.473 28.5854 202.545 28.7388 202.505 29.0456C202.489 29.1667 202.489 29.2878 202.505 29.4089C202.57 29.7964 202.416 29.8932 202.029 29.9013V29.8932Z" fill="white"/>
    <path d="M205.75 22.353C204.862 20.4719 203.966 18.599 203.086 16.7099C202.949 16.4112 202.755 16.3708 202.481 16.3869C202.206 16.4031 201.94 16.3304 201.794 16.7099C201.568 17.2831 201.278 17.832 201.011 18.3891C200.366 19.7454 199.728 21.1097 199.082 22.466C198.969 22.7082 199.001 22.7728 199.284 22.7809C200.285 22.7889 200.285 22.8051 200.721 21.8847C200.737 21.8444 200.761 21.8121 200.777 21.7798C200.842 21.5618 200.971 21.4972 201.197 21.5053C201.883 21.5214 202.569 21.5618 203.248 21.4972C203.853 21.4326 204.176 21.6587 204.321 22.2157C204.442 22.6598 204.685 22.9262 205.121 22.7889C205.29 22.7889 205.379 22.7889 205.476 22.7889C205.944 22.7889 205.944 22.7889 205.75 22.3772V22.353ZM203.272 20.4719C202.723 20.4719 202.174 20.4719 201.625 20.4719C201.415 20.4719 201.407 20.3831 201.48 20.2217C201.786 19.5677 202.093 18.9219 202.448 18.1792C202.796 18.93 203.102 19.592 203.409 20.262C203.482 20.4235 203.433 20.48 203.264 20.4719H203.272Z" fill="white"/>
    <path d="M212.411 27.8911C212.411 27.657 212.354 27.5521 212.096 27.5601C211.369 27.5763 210.643 27.5763 209.916 27.5601C209.634 27.5601 209.585 27.6651 209.585 27.9153C209.601 28.4805 209.577 29.0456 209.593 29.6107C209.609 29.9982 209.335 29.869 209.149 29.8771C208.964 29.8771 208.697 29.9821 208.713 29.6026C208.737 29.199 208.713 28.7953 208.713 28.3917C208.713 27.6489 208.713 27.6651 207.987 27.6409C207.648 27.6328 207.591 27.7539 207.591 28.0526C207.607 29.1182 207.591 30.1758 207.599 31.2415C207.599 31.5402 207.551 31.6694 207.212 31.6613C206.477 31.6451 206.477 31.6613 206.493 32.404C206.493 32.4444 206.493 32.4847 206.493 32.5251C206.477 32.7108 206.566 32.7511 206.735 32.7511C207.317 32.7511 207.89 32.7431 208.471 32.7511C208.673 32.7511 208.729 32.6785 208.721 32.4928C208.713 32.1053 208.746 31.7097 208.713 31.3222C208.689 30.9751 208.818 30.8863 209.141 30.9105C209.609 30.9347 210.086 30.9105 210.554 30.9105C211.054 30.9105 211.547 30.9024 212.047 30.9105C212.298 30.9105 212.411 30.8701 212.403 30.5875C212.387 29.6834 212.387 28.7872 212.403 27.883L212.411 27.8911ZM211.232 29.8852C210.627 29.974 210.554 29.9175 210.554 29.2474C210.554 29.1909 210.554 29.1425 210.554 29.0859C210.554 28.6581 210.901 28.4401 211.313 28.6177C211.402 28.6581 211.426 28.7227 211.426 28.8115C211.426 29.1102 211.426 29.4008 211.426 29.6995C211.426 29.8287 211.369 29.8771 211.232 29.9013V29.8852Z" fill="white"/>
    <path d="M145.768 29.5062C145.785 28.6862 145.707 27.8706 145.56 27.0636C145.401 26.1746 145.116 25.3201 144.784 24.4829C144.499 23.7709 144.08 23.1624 143.467 22.6834C142.898 22.2389 142.35 21.7599 141.815 21.2722C140.835 20.3746 139.881 19.4511 138.824 18.6398C138.31 18.2471 137.784 17.8759 137.292 17.4616C136.563 16.8445 136.01 16.0677 135.484 15.2823C135.026 14.6005 134.573 13.9186 133.917 13.4051C133.317 12.939 132.73 12.4557 132.191 11.9162C131.345 11.0747 130.495 10.2375 129.736 9.314C129.278 8.75299 128.765 8.29554 128.035 8.09703C127.345 7.90715 126.745 7.9762 126.205 8.48111C125.657 8.99034 125.161 9.54704 124.622 10.0649C124.38 10.2936 124.16 10.5353 123.793 10.6C122.986 10.7424 122.317 11.1308 121.843 11.817C121.674 12.0586 121.506 12.3003 121.338 12.542C120.457 13.8194 119.482 15.0018 118.187 15.8908C116.949 16.7453 115.822 17.7335 114.774 18.8124C113.656 19.9733 112.461 21.0435 111.188 22.0317C110.726 22.3899 110.255 22.7567 110.005 23.3178C109.833 23.7018 109.681 24.0945 109.561 24.5002C109.237 25.5661 109.03 26.6536 109.013 27.7713C109 28.5093 108.978 29.2516 109.06 29.9895C109.095 30.3002 109.237 30.516 109.522 30.6282C109.738 30.7102 109.966 30.7361 110.191 30.7835C110.972 30.9475 111.753 31.1202 112.534 31.2841C113.086 31.4007 113.643 31.5086 114.195 31.6294C114.873 31.7718 115.546 31.9185 116.224 32.0653C116.642 32.1559 117.061 32.2465 117.48 32.3414C117.605 32.3673 117.656 32.4191 117.613 32.5658C117.566 32.7298 117.523 32.8981 117.549 33.0751C117.661 33.895 118.248 34.5208 119.137 34.5898C119.236 34.5984 119.283 34.6157 119.301 34.7322C119.352 35.099 119.473 35.4443 119.732 35.7248C120.082 36.1089 120.526 36.2772 121.036 36.2772C121.135 36.2772 121.26 36.2426 121.29 36.4023C121.411 37.1359 122.166 37.6063 122.878 37.5761C123.072 37.5675 123.288 37.4596 123.444 37.5157C123.595 37.5718 123.62 37.8394 123.754 37.9818C123.763 37.9904 123.776 38.0034 123.784 38.012C124.315 38.6464 125.256 38.6766 125.912 38.3184C126.011 38.2666 126.08 38.2019 126.184 38.3313C126.922 39.2333 128.506 38.9441 128.98 37.8609C129.041 37.7229 129.101 37.7229 129.222 37.7401C129.455 37.7746 129.697 37.7833 129.93 37.7358C130.564 37.602 131.013 37.2309 131.285 36.6483C131.337 36.5318 131.397 36.4973 131.526 36.5145C132.454 36.6224 133.317 36.1865 133.645 35.2371C133.68 35.1336 133.727 35.1034 133.827 35.1077C133.982 35.1077 134.142 35.1163 134.301 35.0861C135.225 34.9178 135.971 34.0504 135.933 33.0492C135.924 32.8679 135.984 32.8032 136.166 32.7773C136.679 32.6953 137.193 32.5917 137.706 32.4968C138.556 32.3371 139.402 32.1731 140.252 32.0178C141.025 31.8754 141.797 31.7373 142.57 31.5992C143.364 31.4525 144.158 31.3014 144.956 31.159C145.53 31.0554 145.755 30.8224 145.772 30.2398C145.781 29.9938 145.772 29.7521 145.772 29.5062H145.768ZM119.737 33.498C119.607 33.6275 119.443 33.7051 119.266 33.6792C118.921 33.6965 118.709 33.5196 118.554 33.2606C118.403 33.0017 118.489 32.7687 118.658 32.5443C118.886 32.2379 119.154 31.966 119.434 31.7114C119.84 31.3402 120.496 31.5258 120.686 32.0394C120.755 32.2292 120.673 32.3846 120.582 32.5227C120.345 32.8809 120.043 33.1916 119.741 33.498H119.737ZM121.584 35.1077C121.424 35.2846 121.234 35.3709 120.992 35.358C120.41 35.358 120.03 34.7365 120.328 34.2359C120.651 33.7008 121.061 33.2261 121.497 32.7816C121.782 32.4925 122.265 32.5356 122.589 32.8334C122.878 33.101 122.913 33.4807 122.65 33.8217C122.309 34.2661 121.955 34.6977 121.579 35.112L121.584 35.1077ZM123.784 36.0053C123.633 36.1779 123.474 36.3462 123.301 36.4973C123.068 36.6958 122.788 36.7173 122.516 36.5922C122.252 36.4714 122.11 36.2642 122.136 35.9535C122.149 35.8068 122.214 35.6946 122.304 35.591C122.662 35.1681 123.008 34.7409 123.392 34.3395C123.53 34.1928 123.685 34.1151 123.866 34.1367C124.376 34.1367 124.704 34.6459 124.505 35.099C124.345 35.4615 124.048 35.7205 123.793 36.0096L123.784 36.0053ZM126.318 36.48C126.041 36.8554 125.735 37.205 125.381 37.5157C125.269 37.6107 125.127 37.6452 125.001 37.6279C124.708 37.6409 124.492 37.5157 124.376 37.2913C124.238 37.0194 124.345 36.7562 124.518 36.5318C124.743 36.2383 124.98 35.9492 125.226 35.6687C125.468 35.3882 125.839 35.358 126.132 35.5737C126.439 35.7981 126.533 36.1822 126.318 36.4843V36.48ZM128.247 37.3086C128.122 37.6668 127.785 37.9214 127.405 37.9257C127.12 37.9171 126.883 37.7962 126.68 37.602C126.602 37.5287 126.594 37.4553 126.667 37.3604C126.879 37.0928 127.116 36.8382 127.25 36.5188C127.284 36.4368 127.327 36.4282 127.397 36.4843C127.668 36.7044 127.945 36.9245 128.216 37.1403C128.273 37.1877 128.268 37.2352 128.247 37.3086ZM134.582 34.0029C134.224 34.2532 133.857 34.2834 133.568 34.0504C132.735 33.3815 131.906 32.7039 131.078 32.0264C130.555 31.5992 130.016 31.1978 129.464 30.8138C129.317 30.7102 129.166 30.6239 129.006 30.8051C128.898 30.9303 128.894 31.2151 129.006 31.3618C129.166 31.569 129.382 31.72 129.58 31.8797C130.568 32.678 131.548 33.485 132.476 34.3568C132.679 34.5467 132.812 34.7667 132.687 35.0645C132.567 35.3537 132.282 35.5435 131.967 35.5565C131.703 35.5694 131.475 35.4831 131.268 35.3321C130.314 34.6416 129.408 33.8907 128.475 33.1786C128.255 33.0103 128.027 32.842 127.789 32.691C127.552 32.54 127.323 32.5917 127.189 32.8032C127.047 33.0276 127.099 33.2779 127.332 33.4376C128.268 34.0763 129.183 34.7495 130.046 35.4874C130.202 35.6212 130.391 35.7377 130.43 35.9621C130.482 36.2685 130.353 36.5404 130.072 36.6785C129.723 36.8511 129.36 36.8641 129.032 36.6267C128.428 36.1909 127.854 35.7075 127.22 35.3191C127.168 35.2889 127.129 35.2285 127.09 35.1767C126.745 34.702 126.275 34.4647 125.692 34.456C125.506 34.456 125.416 34.4172 125.373 34.2144C125.273 33.7612 124.673 33.2822 124.173 33.2175C124.16 33.2175 124.143 33.2175 124.13 33.2175C123.905 33.1916 123.759 33.1657 123.668 32.8679C123.448 32.1688 122.883 31.8063 122.17 31.6682C122.158 31.6682 122.14 31.6682 122.127 31.6682C121.739 31.6812 121.467 31.569 121.208 31.2065C120.651 30.4167 119.512 30.2959 118.779 31.0338C118.692 31.1202 118.589 31.1935 118.515 31.2885C118.338 31.5172 118.118 31.5344 117.855 31.474C116.867 31.2583 115.874 31.0511 114.882 30.844C113.889 30.6411 112.892 30.4426 111.9 30.2398C111.334 30.1233 110.773 29.9852 110.204 29.873C110.044 29.8428 109.992 29.7694 109.966 29.6227C109.902 29.2429 109.958 28.8632 109.932 28.4834C109.906 27.9483 109.923 27.4175 110.001 26.891C110.169 25.769 110.368 24.6512 110.885 23.6242C110.963 23.4688 111.054 23.4343 111.209 23.4774C112.085 23.7105 112.961 23.9521 113.846 24.1679C115.102 24.47 116.349 24.8195 117.596 25.1432C118.183 25.2942 118.77 25.4453 119.352 25.6136C119.758 25.7301 120.142 25.6481 120.496 25.4755C121.251 25.1087 121.985 24.6944 122.74 24.3276C123.305 24.0514 123.866 23.7536 124.492 23.6285C124.837 23.5594 125.187 23.512 125.541 23.5378C125.575 23.5378 125.619 23.5292 125.632 23.5724C125.649 23.6285 125.597 23.6414 125.567 23.6673C125.243 23.9262 124.885 24.1377 124.54 24.3707C124.095 24.6728 123.72 25.044 123.387 25.4626C122.939 26.0236 122.464 26.563 121.907 27.0248C121.277 27.5469 121.445 28.4748 122.067 28.9452C122.654 29.3853 123.305 29.4328 124.009 29.2516C124.885 29.0271 125.58 28.5179 126.201 27.9051C126.521 27.5901 126.879 27.4693 127.289 27.4088C127.453 27.3873 127.625 27.3873 127.776 27.3312C128.065 27.2233 128.264 27.3398 128.497 27.4995C129.805 28.3841 130.961 29.4414 132.157 30.4599C132.976 31.159 133.792 31.8624 134.608 32.5658C134.763 32.6996 134.927 32.8248 134.987 33.0449C135.065 33.3383 134.88 33.8044 134.595 34.0029H134.582ZM144.633 30.2959C143.908 30.4297 143.183 30.5635 142.462 30.6972C141.91 30.8008 141.353 30.9044 140.8 31.0036C140.265 31.0986 139.73 31.1849 139.195 31.2841C138.535 31.4007 137.875 31.5215 137.21 31.6423C136.696 31.7373 136.187 31.8365 135.674 31.9228C135.454 31.9617 135.264 31.884 135.095 31.7502C133.943 30.844 132.83 29.8989 131.725 28.9408C130.84 28.1727 129.925 27.4477 129.002 26.7313C128.985 26.7184 128.963 26.7097 128.95 26.6968C128.566 26.2782 128.1 26.2566 127.586 26.3947C127.379 26.4508 127.168 26.4767 126.956 26.4983C126.439 26.5457 126.024 26.7874 125.662 27.1499C125.26 27.5513 124.829 27.9181 124.315 28.177C124.03 28.3194 123.737 28.423 123.418 28.4402C123.167 28.4575 122.952 28.3712 122.749 28.246C122.503 28.095 122.455 27.8231 122.645 27.6074C122.783 27.452 122.934 27.3053 123.085 27.1629C123.478 26.7917 123.828 26.3861 124.16 25.9588C124.682 25.2813 125.424 24.867 126.102 24.3751C126.43 24.1377 126.766 23.896 127.12 23.6975C127.789 23.3264 128.51 23.335 129.231 23.512C130.167 23.7407 130.978 24.2542 131.82 24.6944C132.588 25.0957 133.352 25.51 134.137 25.8812C134.612 26.1056 135.095 26.1012 135.587 25.9675C137.037 25.5834 138.487 25.182 139.937 24.798C141.055 24.5002 142.173 24.2197 143.29 23.9306C143.407 23.9003 143.485 23.9392 143.554 24.0514C143.921 24.6253 144.128 25.264 144.335 25.9027C144.503 26.4335 144.637 26.9773 144.719 27.5254C144.81 28.1425 144.892 28.7596 144.866 29.3249C144.866 29.5968 144.848 29.8039 144.87 30.0111C144.887 30.201 144.801 30.2657 144.641 30.2959H144.633Z" fill="white"/>
    <path d="M127.362 8.89533C127.919 8.92123 128.376 9.11542 128.708 9.54266C128.937 9.84043 129.213 10.0907 129.464 10.3669C130.258 11.2559 131.078 12.119 131.945 12.9346C132.368 13.3317 132.817 13.6985 133.279 14.048C133.835 14.4709 134.25 15.0061 134.625 15.58C135.026 16.1885 135.466 16.7668 135.928 17.3321C136.312 17.7982 136.722 18.234 137.227 18.575C137.702 18.8943 138.146 19.2568 138.604 19.6021C139.109 19.9818 139.575 20.4091 140.037 20.8363C140.813 21.5483 141.586 22.2604 142.414 22.912C142.471 22.9552 142.557 23.0027 142.548 23.0717C142.531 23.1796 142.419 23.1278 142.35 23.1451C141.862 23.2875 141.383 23.4472 140.887 23.555C140.041 23.7406 139.217 24.0082 138.375 24.2067C137.59 24.3923 136.813 24.6253 136.036 24.8324C135.734 24.9144 135.428 25.0007 135.121 25.0655C134.849 25.1259 134.59 25.0655 134.34 24.9274C133.818 24.6339 133.283 24.3577 132.748 24.0902C132.122 23.7751 131.539 23.3867 130.905 23.0847C130.245 22.7696 129.559 22.515 128.834 22.4158C128.286 22.3381 127.729 22.3899 127.215 22.6358C126.905 22.7869 126.594 22.7006 126.296 22.6358C125.165 22.3985 124.099 22.5797 123.064 23.0717C122.382 23.3954 121.743 23.7967 121.061 24.1247C120.811 24.2455 120.565 24.3793 120.319 24.5045C119.97 24.6814 119.594 24.7245 119.219 24.5994C118.463 24.3491 117.682 24.1981 116.923 23.9736C116.073 23.7233 115.214 23.5119 114.359 23.2875C113.6 23.089 112.84 22.8948 112.081 22.6963C112.025 22.6833 111.934 22.6876 111.921 22.61C111.908 22.5409 111.99 22.528 112.038 22.4978C113.621 21.3455 114.989 19.9559 116.362 18.562C116.992 17.919 117.713 17.371 118.442 16.8315C119.257 16.2317 120.086 15.6361 120.746 14.8464C121.299 14.1861 121.791 13.4827 122.3 12.7922C122.52 12.4945 122.753 12.2053 123.021 11.9421C123.241 11.7263 123.5 11.5882 123.789 11.5364C124.376 11.4328 124.863 11.1696 125.273 10.738C125.77 10.2202 126.292 9.73254 126.771 9.19742C126.93 9.02048 127.116 8.86513 127.358 8.89102L127.362 8.89533Z" fill="#295733"/>
    <path d="M136.304 21.4276C136.045 21.2377 135.79 21.0435 135.531 20.8622C135.057 20.5343 134.547 20.2624 133.999 20.0768C133.572 19.9344 133.253 19.6366 133.011 19.2828C132.631 18.7304 132.144 18.2988 131.639 17.8716C131.216 17.5177 130.789 17.1639 130.413 16.7582C130.318 16.6546 130.262 16.5252 130.241 16.3784C130.163 15.8692 130.094 15.36 129.969 14.8637C129.9 14.5961 129.744 14.3458 129.55 14.1301C129.067 13.5993 128.592 13.0598 128.299 12.3996C128.04 11.817 128.096 11.2128 128.217 10.6086C128.221 10.5784 128.23 10.5482 128.264 10.5482C128.303 10.5482 128.329 10.5784 128.342 10.613C128.398 10.7381 128.454 10.8589 128.506 10.9884C128.808 11.7609 129.196 12.4772 129.783 13.0685C130.301 13.5906 130.715 14.1775 130.918 14.8896C131.013 15.2219 131.065 15.5758 131.091 15.921C131.108 16.1238 131.203 16.2576 131.324 16.3828C131.833 16.9179 132.407 17.3883 132.981 17.85C133.21 18.0313 133.352 18.2643 133.503 18.4973C133.818 18.9764 134.232 19.3518 134.69 19.6927C135.152 20.0337 135.544 20.4609 135.928 20.8838C136.045 21.009 136.148 21.1471 136.261 21.2808C136.291 21.3197 136.338 21.3499 136.299 21.4232L136.304 21.4276Z" fill="white"/>
    <path d="M124.712 12.5895C124.699 12.8571 124.699 13.1246 124.665 13.3879C124.592 13.9791 124.406 14.5401 124.125 15.0666C123.901 15.4852 123.573 15.8175 123.211 16.1066C122.74 16.4778 122.412 16.9352 122.171 17.4747C121.847 18.1824 121.415 18.8081 120.725 19.2095C120.492 19.3433 120.246 19.4684 119.991 19.5633C119.564 19.723 119.227 20.0122 118.882 20.2884C118.489 20.5991 118.045 20.8321 117.622 21.0953C117.393 21.2378 117.147 21.3586 116.914 21.4881C116.858 21.4363 116.901 21.4061 116.927 21.3759C117.6 20.6811 118.248 19.9561 118.981 19.3217C119.245 19.093 119.568 18.9635 119.866 18.7995C120.237 18.5967 120.569 18.3464 120.85 18.0443C121.092 17.7854 121.251 17.4617 121.402 17.138C121.597 16.7238 121.774 16.3095 122.11 15.9815C122.641 15.468 123.18 14.9587 123.56 14.3157C123.867 13.7979 124.177 13.2886 124.51 12.788C124.557 12.719 124.613 12.6543 124.665 12.5852C124.682 12.5852 124.699 12.5895 124.712 12.5938V12.5895Z" fill="white"/>
    <path d="M126.568 14.1517C126.577 14.7429 126.693 15.3125 126.754 15.8865C126.805 16.3871 126.633 16.7798 126.279 17.1121C125.852 17.5177 125.459 17.9536 125.2 18.493C125.001 18.903 124.816 19.3173 124.566 19.7057C124.315 20.0941 123.927 20.3444 123.621 20.6724C123.599 20.6982 123.564 20.7285 123.53 20.6896C123.495 20.6508 123.53 20.6119 123.551 20.5731C123.711 20.2235 123.879 19.874 124.018 19.5158C124.186 19.0886 124.272 18.6398 124.358 18.1909C124.462 17.6731 124.751 17.2588 125.157 16.961C125.627 16.6115 125.903 16.167 126.054 15.6189C126.18 15.1658 126.322 14.717 126.46 14.2682C126.473 14.225 126.482 14.1689 126.564 14.1473L126.568 14.1517Z" fill="white"/>
    <path d="M189.971 174.557C190.263 174.557 190.495 174.585 190.666 174.641C190.842 174.692 190.967 174.78 191.04 174.904C191.117 175.025 191.156 175.188 191.156 175.394V177.647H187.454V177.067H190.641V175.207C190.538 175.181 190.43 175.164 190.319 175.156C190.207 175.143 190.076 175.136 189.926 175.136C189.754 175.136 189.566 175.149 189.36 175.175C189.154 175.201 188.958 175.239 188.774 175.291L188.574 174.814C188.694 174.754 188.832 174.707 188.986 174.673C189.145 174.634 189.31 174.606 189.482 174.589C189.654 174.568 189.817 174.557 189.971 174.557ZM188.587 177.434C188.467 177.297 188.388 177.117 188.349 176.894C188.31 176.666 188.291 176.428 188.291 176.179C188.291 175.934 188.317 175.698 188.368 175.471C188.424 175.244 188.493 175.025 188.574 174.814L189.057 174.962C188.984 175.181 188.924 175.389 188.877 175.587C188.83 175.78 188.806 175.977 188.806 176.179C188.806 176.334 188.812 176.484 188.825 176.63C188.843 176.776 188.87 176.913 188.909 177.042C188.952 177.17 189.01 177.286 189.083 177.389L188.587 177.434Z" fill="white"/>
    <path d="M187.324 177.067H187.71V177.647H187.35C187.221 177.647 187.12 177.619 187.047 177.563C186.974 177.503 186.914 177.411 186.867 177.286L186.423 176.128C186.32 175.879 186.204 175.683 186.075 175.542C185.946 175.396 185.785 175.293 185.592 175.233C185.403 175.168 185.161 175.136 184.865 175.136C184.783 175.136 184.697 175.138 184.607 175.143C184.522 175.147 184.429 175.153 184.331 175.162L184.247 174.596C184.371 174.583 184.489 174.574 184.601 174.57C184.717 174.561 184.826 174.557 184.929 174.557C185.29 174.557 185.592 174.604 185.837 174.699C186.086 174.789 186.294 174.932 186.461 175.13C186.629 175.327 186.77 175.587 186.886 175.909L187.324 177.067ZM186.448 175.941L186.925 176.147C186.847 176.361 186.749 176.561 186.629 176.746C186.513 176.926 186.373 177.085 186.21 177.222C186.051 177.355 185.867 177.46 185.657 177.537C185.451 177.61 185.215 177.647 184.949 177.647H183.771V177.067H185.161C185.333 177.067 185.487 177.033 185.624 176.964C185.766 176.896 185.888 176.806 185.991 176.694C186.099 176.582 186.189 176.462 186.262 176.334C186.339 176.2 186.401 176.07 186.448 175.941Z" fill="white"/>
    <path d="M183.253 177.067H184.025V177.647H183.253V177.067ZM179.59 177.067H180.62C180.599 176.947 180.581 176.803 180.569 176.636C180.56 176.469 180.556 176.248 180.556 175.973C180.556 175.694 180.575 175.465 180.614 175.284C180.652 175.1 180.721 174.956 180.82 174.853C180.918 174.746 181.056 174.671 181.232 174.628C181.408 174.581 181.633 174.557 181.907 174.557C182.143 174.557 182.362 174.572 182.564 174.602C182.766 174.632 182.995 174.684 183.253 174.756V177.647H179.59V177.067ZM182.442 177.067C182.553 177.067 182.631 177.044 182.673 176.997C182.716 176.949 182.738 176.866 182.738 176.746V175.149H181.399C181.283 175.149 181.204 175.173 181.161 175.22C181.122 175.267 181.103 175.362 181.103 175.503V177.067H182.442ZM181.907 173.849C181.865 173.849 181.815 173.83 181.759 173.791C181.704 173.752 181.654 173.705 181.611 173.649C181.573 173.589 181.553 173.538 181.553 173.495C181.553 173.448 181.573 173.398 181.611 173.347C181.654 173.291 181.704 173.244 181.759 173.205C181.815 173.162 181.865 173.141 181.907 173.141C181.955 173.141 182.004 173.162 182.056 173.205C182.111 173.244 182.159 173.291 182.197 173.347C182.24 173.398 182.262 173.448 182.262 173.495C182.262 173.538 182.24 173.587 182.197 173.643C182.159 173.699 182.111 173.748 182.056 173.791C182 173.83 181.95 173.849 181.907 173.849Z" fill="white"/>
    <path d="M179.851 177.067V177.647H174.366V177.067H179.851ZM178.563 177.647V175.207C178.413 175.16 178.175 175.136 177.849 175.136C177.192 175.136 176.705 175.314 176.387 175.671C176.07 176.022 175.911 176.565 175.911 177.299H175.396V173.591H175.911V175.806C176.01 175.54 176.16 175.314 176.362 175.13C176.563 174.941 176.81 174.799 177.102 174.705C177.394 174.606 177.722 174.557 178.087 174.557C178.336 174.557 178.531 174.581 178.673 174.628C178.819 174.675 178.922 174.754 178.982 174.866C179.046 174.977 179.078 175.132 179.078 175.329V177.647H178.563ZM177.714 173.849C177.671 173.849 177.621 173.83 177.565 173.791C177.51 173.752 177.46 173.705 177.417 173.649C177.379 173.589 177.359 173.538 177.359 173.495C177.359 173.448 177.379 173.398 177.417 173.347C177.46 173.291 177.51 173.244 177.565 173.205C177.621 173.162 177.671 173.141 177.714 173.141C177.761 173.141 177.81 173.162 177.862 173.205C177.917 173.244 177.965 173.291 178.003 173.347C178.046 173.398 178.068 173.448 178.068 173.495C178.068 173.538 178.046 173.587 178.003 173.643C177.965 173.699 177.917 173.748 177.862 173.791C177.806 173.83 177.756 173.849 177.714 173.849Z" fill="white"/>
    <path d="M173.915 177.067H174.623V177.647H173.915V177.067ZM173.934 174.621V177.647H172.363C172.089 177.647 171.863 177.627 171.687 177.589C171.516 177.55 171.385 177.477 171.295 177.37C171.205 177.263 171.142 177.11 171.108 176.913C171.074 176.716 171.057 176.456 171.057 176.134C171.057 175.812 171.074 175.553 171.108 175.355C171.142 175.158 171.205 175.005 171.295 174.898C171.385 174.791 171.516 174.718 171.687 174.679C171.863 174.641 172.089 174.621 172.363 174.621H173.934ZM173.419 175.201H172.048C171.889 175.201 171.775 175.229 171.707 175.284C171.638 175.34 171.604 175.432 171.604 175.561V176.707C171.604 176.836 171.638 176.928 171.707 176.984C171.775 177.04 171.889 177.067 172.048 177.067H173.419V175.201ZM172.042 173.849C171.999 173.849 171.949 173.83 171.893 173.791C171.838 173.752 171.788 173.705 171.745 173.649C171.707 173.589 171.687 173.538 171.687 173.495C171.687 173.448 171.707 173.398 171.745 173.347C171.788 173.291 171.838 173.244 171.893 173.205C171.949 173.162 171.999 173.141 172.042 173.141C172.089 173.141 172.138 173.162 172.19 173.205C172.245 173.244 172.293 173.291 172.331 173.347C172.374 173.398 172.396 173.448 172.396 173.495C172.396 173.538 172.374 173.587 172.331 173.643C172.293 173.699 172.245 173.748 172.19 173.791C172.134 173.83 172.084 173.849 172.042 173.849ZM172.968 173.849C172.926 173.849 172.876 173.83 172.82 173.791C172.765 173.752 172.715 173.705 172.672 173.649C172.634 173.589 172.614 173.538 172.614 173.495C172.614 173.448 172.634 173.398 172.672 173.347C172.715 173.291 172.765 173.244 172.82 173.205C172.876 173.162 172.926 173.141 172.968 173.141C173.016 173.141 173.065 173.162 173.117 173.205C173.172 173.244 173.22 173.291 173.258 173.347C173.301 173.398 173.323 173.448 173.323 173.495C173.323 173.538 173.301 173.587 173.258 173.643C173.22 173.699 173.172 173.748 173.117 173.791C173.061 173.83 173.011 173.849 172.968 173.849Z" fill="white"/>
    <path d="M164.591 177.067H165.621C165.6 176.947 165.582 176.803 165.57 176.636C165.561 176.469 165.557 176.248 165.557 175.973C165.557 175.694 165.576 175.465 165.615 175.284C165.653 175.1 165.722 174.956 165.821 174.853C165.919 174.746 166.057 174.671 166.233 174.628C166.408 174.581 166.634 174.557 166.908 174.557C167.144 174.557 167.363 174.572 167.565 174.602C167.767 174.632 167.996 174.684 168.254 174.756V177.647H164.591V177.067ZM167.443 177.067C167.554 177.067 167.632 177.044 167.674 176.997C167.717 176.949 167.739 176.866 167.739 176.746V175.149H166.4C166.284 175.149 166.205 175.173 166.162 175.22C166.123 175.267 166.104 175.362 166.104 175.503V177.067H167.443ZM166.908 173.849C166.866 173.849 166.816 173.83 166.76 173.791C166.705 173.752 166.655 173.705 166.612 173.649C166.574 173.589 166.554 173.538 166.554 173.495C166.554 173.448 166.574 173.398 166.612 173.347C166.655 173.291 166.705 173.244 166.76 173.205C166.816 173.162 166.866 173.141 166.908 173.141C166.956 173.141 167.005 173.162 167.056 173.205C167.112 173.244 167.159 173.291 167.198 173.347C167.241 173.398 167.262 173.448 167.262 173.495C167.262 173.538 167.241 173.587 167.198 173.643C167.159 173.699 167.112 173.748 167.056 173.791C167.001 173.83 166.951 173.849 166.908 173.849Z" fill="white"/>
    <path d="M164.079 177.067H164.851V177.647H164.079V177.067ZM163.126 179.314L162.907 178.863C163.075 178.782 163.206 178.689 163.3 178.586C163.399 178.483 163.467 178.357 163.506 178.207C163.549 178.056 163.57 177.87 163.57 177.647V174.621H164.085V177.647C164.085 177.93 164.053 178.175 163.989 178.381C163.924 178.591 163.821 178.771 163.68 178.921C163.538 179.071 163.354 179.202 163.126 179.314Z" fill="white"/>
    <path d="M160.536 177.647V177.067H161.566V174.621H162.081V177.647H160.536ZM160.948 178.741C160.905 178.741 160.856 178.722 160.8 178.683C160.745 178.644 160.697 178.595 160.659 178.535C160.616 178.479 160.594 178.43 160.594 178.387C160.594 178.34 160.616 178.288 160.659 178.232C160.697 178.181 160.745 178.134 160.8 178.091C160.856 178.052 160.905 178.033 160.948 178.033C160.996 178.033 161.045 178.052 161.096 178.091C161.152 178.134 161.199 178.181 161.238 178.232C161.281 178.288 161.302 178.34 161.302 178.387C161.302 178.43 161.281 178.479 161.238 178.535C161.199 178.591 161.152 178.638 161.096 178.677C161.041 178.72 160.991 178.741 160.948 178.741ZM161.875 178.741C161.832 178.741 161.783 178.722 161.727 178.683C161.671 178.644 161.622 178.595 161.579 178.535C161.541 178.479 161.521 178.43 161.521 178.387C161.521 178.34 161.541 178.288 161.579 178.232C161.622 178.181 161.671 178.134 161.727 178.091C161.783 178.052 161.832 178.033 161.875 178.033C161.923 178.033 161.972 178.052 162.023 178.091C162.079 178.134 162.126 178.181 162.165 178.232C162.208 178.288 162.229 178.34 162.229 178.387C162.229 178.43 162.208 178.479 162.165 178.535C162.126 178.591 162.079 178.638 162.023 178.677C161.968 178.72 161.918 178.741 161.875 178.741Z" fill="white"/>
    <path d="M160.022 177.067H160.795V177.647H160.022V177.067ZM156.276 179.32C156.057 179.32 155.881 179.269 155.748 179.166C155.615 179.067 155.519 178.904 155.459 178.677C155.403 178.449 155.375 178.147 155.375 177.769C155.375 177.615 155.381 177.454 155.394 177.286C155.411 177.119 155.433 176.958 155.459 176.803C155.489 176.649 155.521 176.514 155.555 176.398L156.044 176.482C155.993 176.696 155.954 176.904 155.928 177.106C155.903 177.303 155.89 177.49 155.89 177.666C155.89 177.889 155.896 178.087 155.909 178.258C155.926 178.43 155.954 178.591 155.993 178.741H159.508V177.647H160.022V178.29C160.022 178.668 159.947 178.934 159.797 179.089C159.651 179.243 159.394 179.32 159.025 179.32H156.276ZM158.259 177.647C158.074 177.647 157.922 177.623 157.802 177.576C157.682 177.529 157.587 177.449 157.518 177.338C157.45 177.222 157.4 177.063 157.37 176.861C157.34 176.66 157.325 176.407 157.325 176.102C157.325 175.789 157.345 175.533 157.383 175.336C157.426 175.134 157.497 174.977 157.596 174.866C157.694 174.75 157.832 174.671 158.008 174.628C158.184 174.581 158.407 174.557 158.677 174.557C158.952 174.557 159.19 174.572 159.392 174.602C159.593 174.632 159.804 174.684 160.022 174.756V177.647H158.259ZM159.211 177.067C159.323 177.067 159.4 177.044 159.443 176.997C159.486 176.949 159.508 176.866 159.508 176.746V175.136H158.169C158.053 175.136 157.973 175.16 157.93 175.207C157.892 175.254 157.872 175.349 157.872 175.49V177.067H159.211ZM158.227 173.849C158.184 173.849 158.134 173.83 158.078 173.791C158.023 173.752 157.973 173.705 157.93 173.649C157.892 173.589 157.872 173.538 157.872 173.495C157.872 173.448 157.892 173.398 157.93 173.347C157.973 173.291 158.023 173.244 158.078 173.205C158.134 173.162 158.184 173.141 158.227 173.141C158.274 173.141 158.323 173.162 158.375 173.205C158.43 173.244 158.478 173.291 158.516 173.347C158.559 173.398 158.581 173.448 158.581 173.495C158.581 173.538 158.559 173.587 158.516 173.643C158.478 173.699 158.43 173.748 158.375 173.791C158.319 173.83 158.269 173.849 158.227 173.849ZM159.153 173.849C159.111 173.849 159.061 173.83 159.005 173.791C158.95 173.752 158.9 173.705 158.857 173.649C158.819 173.589 158.799 173.538 158.799 173.495C158.799 173.448 158.819 173.398 158.857 173.347C158.9 173.291 158.95 173.244 159.005 173.205C159.061 173.162 159.111 173.141 159.153 173.141C159.201 173.141 159.25 173.162 159.302 173.205C159.357 173.244 159.405 173.291 159.443 173.347C159.486 173.398 159.508 173.448 159.508 173.495C159.508 173.538 159.486 173.587 159.443 173.643C159.405 173.699 159.357 173.748 159.302 173.791C159.246 173.83 159.196 173.849 159.153 173.849Z" fill="white"/>
    <path d="M152.219 177.647V173.591H152.734V177.647H152.219Z" fill="white"/>
    <path d="M150.93 177.647H149.385V177.067H150.415V173.591H150.93V177.647Z" fill="white"/>
    <path d="M147.712 177.647C147.438 177.647 147.215 177.629 147.043 177.595C146.871 177.561 146.738 177.499 146.644 177.408C146.554 177.318 146.492 177.194 146.457 177.035C146.423 176.876 146.406 176.675 146.406 176.43V175.201H146.921V176.726C146.921 176.863 146.959 176.956 147.037 177.003C147.114 177.046 147.243 177.067 147.423 177.067H148.279C148.309 176.917 148.328 176.758 148.337 176.591C148.35 176.419 148.356 176.222 148.356 175.999C148.356 175.81 148.341 175.606 148.311 175.387C148.281 175.168 148.24 174.945 148.189 174.718L148.697 174.634C148.727 174.746 148.755 174.883 148.781 175.046C148.807 175.205 148.828 175.368 148.845 175.535C148.863 175.698 148.871 175.846 148.871 175.979C148.871 176.404 148.839 176.739 148.775 176.984C148.71 177.224 148.594 177.396 148.427 177.499C148.264 177.597 148.026 177.647 147.712 177.647ZM145.614 177.647H144.97V177.067H145.904C146.084 177.067 146.213 177.046 146.29 177.003C146.367 176.956 146.406 176.863 146.406 176.726V175.201H146.921V176.43C146.921 176.675 146.903 176.876 146.869 177.035C146.839 177.194 146.777 177.318 146.682 177.408C146.592 177.499 146.461 177.561 146.29 177.595C146.118 177.629 145.893 177.647 145.614 177.647ZM144.97 177.647H143.425V177.067H144.455V175.201H144.97V177.647ZM148.453 177.067H149.644V177.647H147.712L148.453 177.067Z" fill="white"/>
    <path d="M142.908 177.067H143.681V177.647H141.363V177.067H142.393V173.591H142.908V177.067Z" fill="white"/>
    <path d="M141.624 177.067V177.647H136.139V177.067H141.624ZM140.336 177.647V175.207C140.186 175.16 139.948 175.136 139.622 175.136C138.965 175.136 138.478 175.314 138.161 175.671C137.843 176.022 137.684 176.565 137.684 177.299H137.169V173.591H137.684V175.806C137.783 175.54 137.933 175.314 138.135 175.13C138.337 174.941 138.583 174.799 138.875 174.705C139.167 174.606 139.495 174.557 139.86 174.557C140.109 174.557 140.304 174.58 140.446 174.628C140.592 174.675 140.695 174.754 140.755 174.866C140.819 174.977 140.851 175.132 140.851 175.329V177.647H140.336Z" fill="white"/>
    <path d="M135.108 177.647V173.591H135.623V177.067H136.395V177.647H135.108Z" fill="white"/>
    <path d="M131.239 178.612H132.417C132.747 178.612 132.974 178.589 133.099 178.542C133.228 178.499 133.292 178.408 133.292 178.271V174.621H133.807V177.878C133.807 178.145 133.786 178.363 133.743 178.535C133.7 178.707 133.618 178.84 133.498 178.934C133.378 179.029 133.208 179.095 132.989 179.134C132.771 179.172 132.483 179.192 132.127 179.192C131.814 179.192 131.558 179.17 131.361 179.127C131.168 179.084 131.018 179.009 130.91 178.902C130.807 178.799 130.736 178.653 130.698 178.464C130.664 178.28 130.646 178.042 130.646 177.75C130.646 177.569 130.653 177.383 130.666 177.19C130.683 176.992 130.706 176.803 130.736 176.623C130.767 176.443 130.801 176.284 130.839 176.147L131.316 176.231C131.264 176.484 131.226 176.731 131.2 176.971C131.174 177.207 131.161 177.43 131.161 177.64C131.161 177.842 131.166 178.018 131.174 178.168C131.187 178.323 131.209 178.471 131.239 178.612ZM132.256 173.849C132.213 173.849 132.163 173.83 132.108 173.791C132.052 173.752 132.002 173.705 131.96 173.649C131.921 173.589 131.902 173.538 131.902 173.495C131.902 173.448 131.921 173.398 131.96 173.347C132.002 173.291 132.052 173.244 132.108 173.205C132.163 173.162 132.213 173.141 132.256 173.141C132.303 173.141 132.352 173.162 132.404 173.205C132.459 173.244 132.507 173.291 132.545 173.347C132.588 173.398 132.61 173.448 132.61 173.495C132.61 173.538 132.588 173.587 132.545 173.643C132.507 173.699 132.459 173.748 132.404 173.791C132.348 173.83 132.299 173.849 132.256 173.849Z" fill="white"/>
    <path d="M196.527 169.6V164.708H194.999V164.129H198.7V164.708H197.171V169.6H196.527Z" fill="white"/>
    <path d="M191.484 169.6V164.129H194.461V164.708H192.128V166.575H194.035V167.154H192.128V169.021H194.622V169.6H191.484Z" fill="white"/>
    <path d="M187.982 169.6V164.129H188.626V169.021H190.854V169.6H187.982Z" fill="white"/>
    <path d="M184.383 169.6V164.129H185.027V169.021H187.256V169.6H184.383Z" fill="white"/>
    <path d="M179.188 169.6L181.03 164.129H181.819L183.661 169.6H182.994L182.463 167.991H180.387L179.855 169.6H179.188ZM180.572 167.412H182.269L181.425 164.837L180.572 167.412Z" fill="white"/>
    <path d="M174.113 169.6L172.705 164.129H173.373L174.499 168.635L175.706 164.129H176.366L177.501 168.635L178.7 164.129H179.343L177.871 169.6H177.122L176.012 165.311L174.861 169.6H174.113Z" fill="white"/>
    <path d="M164.776 169.6L164.977 164.129H165.725L167.407 167.983L169.097 164.129H169.845L170.046 169.6H169.403L169.242 165.32L167.745 168.747H167.077L165.572 165.32L165.42 169.6H164.776Z" fill="white"/>
    <path d="M159.661 169.6L161.504 164.129H162.292L164.135 169.6H163.467L162.936 167.991H160.86L160.329 169.6H159.661ZM161.045 167.412H162.743L161.898 164.837L161.045 167.412Z" fill="white"/>
    <path d="M156.187 169.6V164.129H159.164V164.708H156.831V166.575H158.738V167.154H156.831V169.021H159.325V169.6H156.187Z" fill="white"/>
    <path d="M153.349 169.6V164.708H151.82V164.129H155.521V164.708H153.992V169.6H153.349Z" fill="white"/>
    <path d="M145.023 169.6V164.129H145.771L148.403 168.578V164.129H149.046V169.6H148.298L145.667 165.151V169.6H145.023Z" fill="white"/>
    <path d="M139.828 169.6L141.671 164.129H142.459L144.302 169.6H143.634L143.103 167.991H141.027L140.496 169.6H139.828ZM141.212 167.412H142.91L142.065 164.837L141.212 167.412Z" fill="white"/>
    <path d="M137.979 169.6V164.708H136.45V164.129H140.151V164.708H138.622V169.6H137.979Z" fill="white"/>
    <path d="M134.014 169.6V164.129H134.658V169.021H136.887V169.6H134.014Z" fill="white"/>
    <path d="M130.572 169.729C129.848 169.729 129.282 169.477 128.874 168.973C128.472 168.468 128.271 167.766 128.271 166.865C128.271 165.963 128.472 165.261 128.874 164.756C129.282 164.252 129.848 164 130.572 164C131.055 164 131.468 164.115 131.811 164.346C132.16 164.571 132.425 164.899 132.608 165.328C132.795 165.751 132.889 166.264 132.889 166.865C132.889 167.46 132.795 167.972 132.608 168.401C132.425 168.831 132.16 169.16 131.811 169.391C131.468 169.616 131.055 169.729 130.572 169.729ZM130.572 169.142C131.097 169.142 131.508 168.94 131.803 168.538C132.098 168.136 132.245 167.578 132.245 166.865C132.245 166.151 132.098 165.593 131.803 165.191C131.508 164.789 131.097 164.587 130.572 164.587C130.051 164.587 129.644 164.789 129.349 165.191C129.059 165.588 128.914 166.146 128.914 166.865C128.914 167.578 129.059 168.136 129.349 168.538C129.644 168.94 130.051 169.142 130.572 169.142Z" fill="white"/>
    <path d="M125.827 169.729C125.499 169.729 125.175 169.665 124.853 169.536C124.531 169.402 124.247 169.219 124 168.989L124.37 168.506C124.542 168.694 124.759 168.844 125.022 168.957C125.285 169.069 125.556 169.126 125.835 169.126C126.183 169.126 126.462 169.04 126.671 168.868C126.881 168.696 126.985 168.471 126.985 168.192C126.985 167.972 126.934 167.795 126.832 167.661C126.736 167.522 126.604 167.412 126.438 167.331C126.272 167.245 126.089 167.17 125.891 167.106C125.698 167.042 125.502 166.974 125.304 166.905C125.11 166.835 124.931 166.744 124.764 166.631C124.598 166.519 124.464 166.374 124.362 166.197C124.266 166.014 124.217 165.784 124.217 165.505C124.217 165.204 124.284 164.941 124.418 164.716C124.558 164.491 124.751 164.316 124.998 164.193C125.245 164.064 125.529 164 125.851 164C126.13 164 126.403 164.035 126.671 164.105C126.945 164.169 127.173 164.26 127.355 164.378L127.033 164.893C126.894 164.802 126.714 164.732 126.494 164.684C126.28 164.63 126.063 164.603 125.843 164.603C125.558 164.603 125.322 164.684 125.135 164.845C124.952 165.006 124.861 165.212 124.861 165.464C124.861 165.663 124.909 165.824 125.006 165.947C125.108 166.071 125.242 166.173 125.408 166.253C125.574 166.328 125.754 166.398 125.947 166.462C126.146 166.521 126.342 166.588 126.535 166.663C126.733 166.738 126.915 166.835 127.082 166.953C127.248 167.071 127.379 167.227 127.476 167.42C127.578 167.607 127.629 167.852 127.629 168.152C127.629 168.64 127.468 169.026 127.146 169.311C126.824 169.59 126.384 169.729 125.827 169.729Z" fill="white"/>
    <defs>
        <linearGradient id="paint0_linear_165_237" x1="288.239" y1="121.419" x2="288.231" y2="81.8847" gradientUnits="userSpaceOnUse">
            <stop stop-color="white"/>
            <stop offset="0.0552147" stop-color="white"/>
            <stop offset="0.544" stop-color="white"/>
            <stop offset="1" stop-color="white"/>
        </linearGradient>
    </defs>
</svg>
